<?xml version="1.0" encoding="UTF-8" standalone="no"?>
<!-- Created with Inkscape (http://www.inkscape.org/) -->
<!-- ClipArt by Arvin61r58 (http://openclipart.org/user-detail/Arvin61r58) -->
<!-- ClipArt by Firkin (https://openclipart.org/user-detail/Firkin) -->
<svg
   xmlns:dc="http://purl.org/dc/elements/1.1/"
   xmlns:cc="http://creativecommons.org/ns#"
   xmlns:rdf="http://www.w3.org/1999/02/22-rdf-syntax-ns#"
   xmlns:svg="http://www.w3.org/2000/svg"
   xmlns="http://www.w3.org/2000/svg"
   version="1.1"
   id="svg4819"
   viewBox="0 0 680.00001 680.00013"
   height="680.00012"
   width="680">
  <title
     id="title5399">Greek Key Round Border</title>
  <defs
     id="defs4821" />
  <metadata
     id="metadata4824">
    <rdf:RDF>
      <cc:Work
         rdf:about="">
        <dc:format>image/svg+xml</dc:format>
        <dc:type
           rdf:resource="http://purl.org/dc/dcmitype/StillImage" />
        <dc:title>Greek Key Round Border</dc:title>
        <cc:license
           rdf:resource="http://creativecommons.org/publicdomain/zero/1.0/" />
        <dc:contributor>
          <cc:Agent>
            <dc:title>Firkin
https://openclipart.org/detail/255890/greek-key-pattern</dc:title>
          </cc:Agent>
        </dc:contributor>
        <dc:creator>
          <cc:Agent>
            <dc:title>Arvin61r58</dc:title>
          </cc:Agent>
        </dc:creator>
        <dc:publisher>
          <cc:Agent>
            <dc:title>Openclipart.org</dc:title>
          </cc:Agent>
        </dc:publisher>
        <dc:identifier>https://openclipart.org/</dc:identifier>
        <dc:source>https://openclipart.org/user-detail/Arvin61r58</dc:source>
        <dc:subject>
          <rdf:Bag>
            <rdf:li>frame</rdf:li>
            <rdf:li>border</rdf:li>
            <rdf:li>Greece</rdf:li>
            <rdf:li>Greek</rdf:li>
            <rdf:li>pattern</rdf:li>
            <rdf:li>texture</rdf:li>
            <rdf:li></rdf:li>
          </rdf:Bag>
        </dc:subject>
        <dc:description>Greek key pattern in a round border/frame</dc:description>
      </cc:Work>
      <cc:License
         rdf:about="http://creativecommons.org/publicdomain/zero/1.0/">
        <cc:permits
           rdf:resource="http://creativecommons.org/ns#Reproduction" />
        <cc:permits
           rdf:resource="http://creativecommons.org/ns#Distribution" />
        <cc:permits
           rdf:resource="http://creativecommons.org/ns#DerivativeWorks" />
      </cc:License>
    </rdf:RDF>
  </metadata>
  <g
     transform="translate(-32.047234,-186.18103)"
     id="layer1">
    <path
       style="fill:#000000;fill-opacity:1;fill-rule:evenodd;stroke:none;stroke-width:1px;stroke-linecap:butt;stroke-linejoin:miter;stroke-opacity:1"
       d="m 697.04721,526.32261 c 0,0 -18.70406,-0.23186 -18.70406,-0.23186 0,0 3.4e-4,-0.0279 3.4e-4,-0.0279 0,0 -3.11735,-0.0387 -3.11735,-0.0387 0,0 -0.0392,3.16118 -0.0392,3.16118 0,0 18.70406,0.23184 18.70406,0.23184 0,0 -3.1714,41.93213 -3.1714,41.93213 0,0 -9.26653,-1.26644 -9.26653,-1.26644 0,0 0.42479,-3.10468 0.42479,-3.10468 0,0 6.17769,0.84428 6.17769,0.84428 0,0 1.12429,-9.52591 1.12429,-9.52591 0,0 -15.4915,-1.73013 -15.4915,-1.73013 0,0 -2.41695,18.22786 -2.41695,18.22786 0,0 3.07753,0.49789 3.07753,0.49789 0,0 2.08953,-15.26554 2.08953,-15.26554 0,0 9.29489,1.03809 9.29489,1.03809 0,0 -0.3482,3.11419 -0.3482,3.11419 0,0 -6.19661,-0.69205 -6.19661,-0.69205 0,0 -1.26555,9.23737 -1.26555,9.23737 0,0 15.38764,2.48947 15.38764,2.48947 0,0 3.73662,-48.89121 3.73662,-48.89121 0,0 -10e-6,4e-5 -10e-6,4e-5 m -4.23764,51.98455 c 0,0 -18.46514,-2.98734 -18.46514,-2.98734 0,0 0.004,-0.0276 0.004,-0.0276 0,0 -3.07752,-0.49788 -3.07752,-0.49788 0,0 -0.50547,3.12079 -0.50547,3.12079 0,0 18.46515,2.98735 18.46515,2.98735 0,0 -9.93718,41.12452 -9.93718,41.12452 0,0 -8.91454,-2.82776 -8.91454,-2.82776 0,0 0.9378,-3.02976 0.9378,-3.02976 0,0 5.9873,1.7396 5.9873,1.7396 0,0 2.61235,-9.22826 2.61235,-9.22826 0,0 -15.07008,-3.9822 -15.07008,-3.9822 0,0 -5.23028,17.4329 -5.23028,17.4329 0,0 2.94761,1.01477 2.94761,1.01477 0,0 4.51633,-14.73441 4.51633,-14.73441 0,0 8.98092,2.6094 8.98092,2.6094 0,0 -0.87524,3.009 -0.87524,3.009 0,0 -5.98732,-1.73961 -5.98732,-1.73961 0,0 -2.7394,8.95273 -2.7394,8.95273 0,0 14.85757,4.71294 14.85757,4.71294 0,0 11.4927,-47.64928 11.4927,-47.64928 0,0 -1e-5,4e-5 -1e-5,4e-5 m -12.56896,50.95419 c 0,0 -17.68569,-6.0886 -17.68569,-6.0886 0,0 0.009,-0.0264 0.009,-0.0264 0,0 -2.94761,-1.01477 -2.94761,-1.01477 0,0 -1.03021,2.98906 -1.03021,2.98906 0,0 17.68568,6.0886 17.68568,6.0886 0,0 -16.27527,38.76061 -16.27527,38.76061 0,0 -8.40671,-4.09664 -8.40671,-4.09664 0,0 1.37412,-2.81662 1.37412,-2.81662 0,0 5.60446,2.7311 5.60446,2.7311 0,0 4.07672,-8.68151 4.07672,-8.68151 0,0 -14.17361,-6.48419 -14.17361,-6.48419 0,0 -8.05741,16.53341 -8.05741,16.53341 0,0 2.76806,1.43348 2.76806,1.43348 0,0 6.81911,-13.82078 6.81911,-13.82078 0,0 8.50414,3.89051 8.50414,3.89051 0,0 -1.36514,2.94692 -1.36514,2.94692 0,0 -5.60446,-2.7311 -5.60446,-2.7311 0,0 -4.15596,8.39039 -4.15596,8.39039 0,0 13.84031,7.16738 13.84031,7.16738 0,0 19.02039,-45.17091 19.02039,-45.17091 0,0 -10e-6,3e-5 -10e-6,3e-5 m -20.46287,47.95321 c 0,0 -16.60837,-8.60086 -16.60837,-8.60086 0,0 0.0129,-0.0248 0.0129,-0.0248 0,0 -2.76807,-1.43348 -2.76807,-1.43348 0,0 -1.38713,2.62777 -1.38713,2.62777 0,0 16.39331,9.00352 16.39331,9.00352 0,0 -22.32217,35.63282 -22.32217,35.63282 0,0 -7.58522,-5.46854 -7.58522,-5.46854 0,0 1.83427,-2.54136 1.83427,-2.54136 0,0 5.05681,3.64569 5.05681,3.64569 0,0 5.51515,-8.08156 5.51515,-8.08156 0,0 -13.07398,-8.48365 -13.07398,-8.48365 0,0 -10.5004,14.86557 -10.5004,14.86557 0,0 2.48282,1.8844 2.48282,1.8844 0,0 8.95004,-12.54604 8.95004,-12.54604 0,0 7.71719,5.28083 7.71719,5.28083 0,0 -1.77131,2.58559 -1.77131,2.58559 0,0 -5.14482,-3.52055 -5.14482,-3.52055 0,0 -5.42845,7.62961 -5.42845,7.62961 0,0 12.64202,9.11423 12.64202,9.11423 0,0 25.98547,-41.56927 25.98547,-41.56927 0,0 -10e-6,3e-5 -10e-6,3e-5 m -28.07018,44.35422 c 0,0 -14.89685,-11.30641 -14.89685,-11.30641 0,0 0.0169,-0.0222 0.0169,-0.0222 0,0 -2.48281,-1.88441 -2.48281,-1.88441 0,0 -1.91307,2.51773 -1.91307,2.51773 0,0 14.89685,11.30639 14.89685,11.30639 0,0 -27.91592,31.82474 -27.91592,31.82474 0,0 -6.53087,-6.69112 -6.53087,-6.69112 0,0 2.21734,-2.26977 2.21734,-2.26977 0,0 4.46326,4.35145 4.46326,4.35145 0,0 6.61557,-6.95059 6.61557,-6.95059 0,0 -11.42448,-10.5989 -11.42448,-10.5989 0,0 -12.87131,13.13352 -12.87131,13.13352 0,0 2.17696,2.23036 2.17696,2.23036 0,0 10.84618,-10.94748 10.84618,-10.94748 0,0 6.85468,6.35934 6.85468,6.35934 0,0 -2.23987,2.35495 -2.23987,2.35495 0,0 -4.46326,-4.35146 -4.46326,-4.35146 0,0 -6.59639,6.64633 -6.59639,6.64633 0,0 10.88479,11.15187 10.88479,11.15187 0,0 32.36236,-36.85437 32.36236,-36.85437 0,0 -3e-5,3e-5 -3e-5,3e-5 m -34.60672,39.04251 c 0,0 -13.06175,-13.38221 -13.06175,-13.38221 0,0 0.02,-0.0194 0.02,-0.0194 0,0 -2.17697,-2.23037 -2.17697,-2.23037 0,0 -2.15358,2.0438 -2.15358,2.0438 0,0 12.72589,13.70162 12.72589,13.70162 0,0 -32.46542,26.74629 -32.46542,26.74629 0,0 -5.47164,-7.58092 -5.47164,-7.58092 0,0 2.54281,-1.83322 2.54281,-1.83322 0,0 3.64776,5.05394 3.64776,5.05394 0,0 7.79705,-5.91521 7.79705,-5.91521 0,0 -9.73005,-12.17133 -9.73005,-12.17133 0,0 -14.67315,10.77194 -14.67315,10.77194 0,0 1.76128,2.57095 1.76128,2.57095 0,0 12.46434,-9.06803 12.46434,-9.06803 0,0 5.65639,7.44419 5.65639,7.44419 0,0 -2.49697,1.89515 -2.49697,1.89515 0,0 -3.77094,-4.96281 -3.77094,-4.96281 0,0 -7.56521,5.5207 -7.56521,5.5207 0,0 9.11939,12.63485 9.11939,12.63485 0,0 37.83081,-31.21988 37.83081,-31.21988 0,0 -3e-5,2e-5 -3e-5,2e-5 m -40.69319,33.19724 c 0,0 -10.56765,-15.42565 -10.56765,-15.42565 0,0 0.023,-0.0157 0.023,-0.0157 0,0 -1.76127,-2.57096 -1.76127,-2.57096 0,0 -2.61005,1.78604 -2.61005,1.78604 0,0 10.56764,15.42567 10.56764,15.42567 0,0 -36.55161,21.33565 -36.55161,21.33565 0,0 -4.09897,-8.40194 -4.09897,-8.40194 0,0 2.82749,-1.43952 2.82749,-1.43952 0,0 2.86858,5.533 2.86858,5.533 0,0 8.47273,-4.50188 8.47273,-4.50188 0,0 -7.5072,-13.65334 -7.5072,-13.65334 0,0 -16.37193,8.39428 -16.37193,8.39428 0,0 1.36633,2.80065 1.36633,2.80065 0,0 13.75926,-6.95513 13.75926,-6.95513 0,0 4.5043,8.19202 4.5043,8.19202 0,0 -2.87395,1.51525 -2.87395,1.51525 0,0 -2.86857,-5.53299 -2.86857,-5.53299 0,0 -8.36157,4.22034 -8.36157,4.22034 0,0 6.83163,14.00324 6.83163,14.00324 0,0 42.35182,-24.70899 42.35182,-24.70899 0,0 -3e-5,2e-5 -3e-5,2e-5 m -45.17006,26.0823 c 0,0 -8.19794,-16.80382 -8.19794,-16.80382 0,0 0.0251,-0.0123 0.0251,-0.0123 0,0 -1.36633,-2.80066 -1.36633,-2.80066 0,0 -2.69941,1.24509 -2.69941,1.24509 0,0 7.78544,16.99869 7.78544,16.99869 0,0 -39.25064,15.10207 -39.25064,15.10207 0,0 -2.82936,-8.90946 -2.82936,-8.90946 0,0 2.98845,-0.94794 2.98845,-0.94794 0,0 1.88623,5.93962 1.88623,5.93962 0,0 9.0917,-3.0673 9.0917,-3.0673 0,0 -5.0767,-14.72969 -5.0767,-14.72969 0,0 -17.51651,5.63204 -17.51651,5.63204 0,0 0.8703,2.99196 0.8703,2.99196 0,0 14.69713,-4.65749 14.69713,-4.65749 0,0 3.04602,8.83778 3.04602,8.83778 0,0 -2.96442,1.02055 -2.96442,1.02055 0,0 -2.03068,-5.89186 -2.03068,-5.89186 0,0 -8.89381,2.81591 -8.89381,2.81591 0,0 4.35147,14.95984 4.35147,14.95984 0,0 46.08401,-17.7231 46.08401,-17.7231 0,0 -3e-5,0 -3e-5,0 m -49.09476,18.5979 c 0,0 -5.22177,-17.95174 -5.22177,-17.95174 0,0 0.0268,-0.007 0.0268,-0.007 0,0 -0.87029,-2.99196 -0.87029,-2.99196 0,0 -3.03746,0.8825 -3.03746,0.8825 0,0 5.22175,17.95172 5.22175,17.95172 0,0 -41.43719,8.65567 -41.43719,8.65567 0,0 -1.26716,-9.26124 -1.26716,-9.26124 0,0 3.1413,-0.45056 3.1413,-0.45056 0,0 0.99635,6.15157 0.99635,6.15157 0,0 9.46268,-1.59792 9.46268,-1.59792 0,0 -2.86776,-15.3131 -2.86776,-15.3131 0,0 -17.99729,2.74877 -17.99729,2.74877 0,0 0.34623,3.09659 0.34623,3.09659 0,0 15.25358,-2.23893 15.25358,-2.23893 0,0 1.49451,9.22736 1.49451,9.22736 0,0 -3.09506,0.50072 -3.09506,0.50072 0,0 -0.99635,-6.15157 -0.99635,-6.15157 0,0 -9.26702,1.36446 -9.26702,1.36446 0,0 2.11193,15.43547 2.11193,15.43547 0,0 48.00226,-10.05002 48.00226,-10.05002 0,0 -4e-5,0 -4e-5,0 m -51.45424,10.49482 c 0,0 -2.07735,-18.5792 -2.07735,-18.5792 0,0 0.0278,0 0.0278,0 0,0 -0.34623,-3.09658 -0.34623,-3.09658 0,0 -3.14363,0.35109 -3.14363,0.35109 0,0 2.07732,18.57927 2.07732,18.57927 0,0 -42.03705,1.91121 -42.03705,1.91121 0,0 0.11834,-9.34669 0.11834,-9.34669 0,0 3.1351,0.0397 3.1351,0.0397 0,0 -0.0789,6.2311 -0.0789,6.2311 0,0 9.6006,-0.0366 9.6006,-0.0366 0,0 -0.19331,-15.57789 -0.19331,-15.57789 0,0 -18.38728,-0.191 -18.38728,-0.191 0,0 -0.11837,3.11356 -0.11837,3.11356 0,0 15.40919,0.23191 15.40919,0.23191 0,0 0.116,9.34668 0.116,9.34668 0,0 -3.25228,0.0374 -3.25228,0.0374 0,0 0.0789,-6.2311 0.0789,-6.2311 0,0 -9.36493,-0.1537 -9.36493,-0.1537 0,0 -0.59186,15.56783 -0.59186,15.56783 0,0 49.02804,-2.19382 49.02804,-2.19382 0,0 -4e-5,0 -4e-5,0 m -52.16117,2.07487 c 0,0 0.71023,-18.68139 0.71023,-18.68139 0,0 0.0279,0 0.0279,0 0,0 0.11837,-3.11356 0.11837,-3.11356 0,0 -3.16093,-0.12004 -3.16093,-0.12004 0,0 -0.71024,18.6814 -0.71024,18.6814 0,0 -42.10057,-4.85692 -42.10057,-4.85692 0,0 1.7599,-9.18047 1.7599,-9.18047 0,0 3.12696,0.54568 3.12696,0.54568 0,0 -1.01915,6.14783 -1.01915,6.14783 0,0 9.48733,1.47514 9.48733,1.47514 0,0 2.16014,-15.42871 2.16014,-15.42871 0,0 -18.1267,-3.09447 -18.1267,-3.09447 0,0 -0.58663,3.06021 -0.58663,3.06021 0,0 15.17621,2.68575 15.17621,2.68575 0,0 -1.29609,9.25727 -1.29609,9.25727 0,0 -3.2115,-0.51693 -3.2115,-0.51693 0,0 1.01916,-6.14784 1.01916,-6.14784 0,0 -9.22244,-1.63374 -9.22244,-1.63374 0,0 -2.93318,15.3008 -2.93318,15.3008 0,0 48.78128,5.61899 48.78128,5.61899 0,0 -4e-5,0 -4e-5,0 m -51.86066,-6.20868 c 0,0 3.51982,-18.36093 3.51982,-18.36093 0,0 0.0274,0.007 0.0274,0.007 0,0 0.58663,-3.06012 0.58663,-3.06012 0,0 -2.90179,-0.62225 -2.90179,-0.62225 0,0 -3.97894,18.26705 -3.97894,18.26705 0,0 -40.48521,-11.48202 -40.48521,-11.48202 0,0 3.10709,-8.8166 3.10709,-8.8166 0,0 2.95728,1.04103 2.95728,1.04103 0,0 -2.0714,5.87767 -2.0714,5.87767 0,0 9.11412,3.00825 9.11412,3.00825 0,0 4.81346,-14.81768 4.81346,-14.81768 0,0 -17.38362,-6.01617 -17.38362,-6.01617 0,0 -1.10787,2.91242 -1.10787,2.91242 0,0 14.54668,5.09965 14.54668,5.09965 0,0 -2.88808,8.8906 -2.88808,8.8906 0,0 -2.98213,-0.96765 -2.98213,-0.96765 0,0 1.9254,-5.92707 1.9254,-5.92707 0,0 -8.80505,-3.07944 -8.80505,-3.07944 0,0 -5.53929,14.56225 -5.53929,14.56225 0,0 47.54554,13.48578 47.54554,13.48578 0,0 -4e-5,0 -4e-5,0 m -50.4763,-14.59932 c 0,0 6.64715,-17.47469 6.64715,-17.47469 0,0 0.0261,0.0104 0.0261,0.0104 0,0 1.10786,-2.91245 1.10786,-2.91245 0,0 -2.95677,-1.12343 -2.95677,-1.12343 0,0 -6.64713,17.47469 -6.64713,17.47469 0,0 -38.31481,-17.97458 -38.31481,-17.97458 0,0 4.5637,-8.15914 4.5637,-8.15914 0,0 2.78179,1.52529 2.78179,1.52529 0,0 -2.90964,5.51153 -2.90964,5.51153 0,0 8.51976,4.41064 8.51976,4.41064 0,0 6.9369,-13.95143 6.9369,-13.95143 0,0 -16.04094,-8.62312 -16.04094,-8.62312 0,0 -1.58658,2.68216 -1.58658,2.68216 0,0 13.53622,7.38328 13.53622,7.38328 0,0 -4.36445,8.26728 -4.36445,8.26728 0,0 -2.77304,-1.46229 -2.77304,-1.46229 0,0 2.90963,-5.51154 2.90963,-5.51154 0,0 -8.22519,-4.48055 -8.22519,-4.48055 0,0 -7.60615,13.59856 -7.60615,13.59856 0,0 44.39565,20.80989 44.39565,20.80989 0,0 -3e-5,0 -3e-5,0 m -47.41624,-22.52594 c 0,0 9.51955,-16.09291 9.51955,-16.09291 0,0 0.024,0.0141 0.024,0.0141 0,0 1.58659,-2.68214 1.58659,-2.68214 0,0 -2.72296,-1.6089 -2.72296,-1.6089 0,0 -9.51953,16.0929 -9.51953,16.0929 0,0 -34.71198,-23.70321 -34.71198,-23.70321 0,0 5.69062,-7.41814 5.69062,-7.41814 0,0 2.48822,1.9066 2.48822,1.9066 0,0 -3.79375,4.94543 -3.79375,4.94543 0,0 7.69006,5.73006 7.69006,5.73006 0,0 9.18538,-12.58703 9.18538,-12.58703 0,0 -14.59829,-11.20724 -14.59829,-11.20724 0,0 -1.9555,2.42666 -1.9555,2.42666 0,0 12.18352,9.45149 12.18352,9.45149 0,0 -5.51121,7.5522 -5.51121,7.5522 0,0 -2.60887,-1.93225 -2.60887,-1.93225 0,0 3.79374,-4.94544 3.79374,-4.94544 0,0 -7.39248,-5.75129 -7.39248,-5.75129 0,0 -9.7775,12.13337 -9.7775,12.13337 0,0 40.43043,27.67567 40.43043,27.67567 0,0 -5e-5,-2e-5 -5e-5,-2e-5 M 165.90174,778.088 c 0,0 11.73298,-14.56002 11.73298,-14.56002 0,0 0.0217,0.0176 0.0217,0.0176 0,0 1.9555,-2.42667 1.9555,-2.42667 0,0 -2.29424,-1.89571 -2.29424,-1.89571 0,0 -12.07765,14.27572 -12.07765,14.27572 0,0 -30.44885,-28.95624 -30.44885,-28.95624 0,0 6.84569,-6.36907 6.84569,-6.36907 0,0 2.13633,2.29361 2.13633,2.29361 0,0 -4.5638,4.24604 -4.5638,4.24604 0,0 6.66585,6.89269 6.66585,6.89269 0,0 11.15297,-10.88398 11.15297,-10.88398 0,0 -12.60615,-13.40864 -12.60615,-13.40864 0,0 -2.33192,2.06802 -2.33192,2.06802 0,0 10.51703,11.27539 10.51703,11.27539 0,0 -6.69177,6.53038 -6.69177,6.53038 0,0 -2.19045,-2.24204 -2.19045,-2.24204 0,0 4.46119,-4.3536 4.46119,-4.3536 0,0 -6.3654,-6.81908 -6.3654,-6.81908 0,0 -11.65959,10.3401 -11.65959,10.3401 0,0 35.74058,33.97562 35.74058,33.97562 0,0 -2e-5,-2e-5 -2e-5,-2e-5 m -37.82159,-36.31958 c 0,0 13.99148,-12.4081 13.99148,-12.4081 0,0 0.0185,0.0209 0.0185,0.0209 0,0 2.33191,-2.06802 2.33191,-2.06802 0,0 -2.09947,-2.36471 -2.09947,-2.36471 0,0 -13.99148,12.4081 -13.99148,12.4081 0,0 -25.59281,-33.65526 -25.59281,-33.65526 0,0 7.81232,-5.13927 7.81232,-5.13927 0,0 1.74963,2.64522 1.74963,2.64522 0,0 -5.12435,3.55026 -5.12435,3.55026 0,0 5.50924,7.84828 5.50924,7.84828 0,0 12.59415,-9.18018 12.59415,-9.18018 0,0 -10.21428,-15.07786 -10.21428,-15.07786 0,0 -2.64461,1.64992 -2.64461,1.64992 0,0 8.57668,12.80996 8.57668,12.80996 0,0 -7.68648,5.32538 -7.68648,5.32538 0,0 -1.78627,-2.57531 -1.78627,-2.57531 0,0 5.12434,-3.55027 5.12434,-3.55027 0,0 -5.21777,-7.77596 -5.21777,-7.77596 0,0 -13.020523,8.56547 -13.020523,8.56547 0,0 29.669803,38.97152 29.669803,38.97152 0,0 -2e-5,-3e-5 -2e-5,-3e-5 M 96.537887,699.8737 c 0,0 15.867673,-9.89962 15.867673,-9.89962 0,0 0.0148,0.0237 0.0148,0.0237 0,0 2.64461,-1.64993 2.64461,-1.64993 0,0 -1.67503,-2.68181 -1.67503,-2.68181 0,0 -15.867663,9.89963 -15.867663,9.89963 0,0 -19.892782,-37.32945 -19.892782,-37.32945 0,0 8.568713,-3.74641 8.568713,-3.74641 0,0 1.334099,2.87765 1.334099,2.87765 0,0 -5.649702,2.63638 -5.649702,2.63638 0,0 4.163191,8.64021 4.163191,8.64021 0,0 13.959324,-6.93295 13.959324,-6.93295 0,0 -7.740323,-16.68396 -7.740323,-16.68396 0,0 -2.85623,1.24881 -2.85623,1.24881 0,0 6.40941,14.01556 6.40941,14.01556 0,0 -8.375597,4.15976 -8.375597,4.15976 0,0 -1.408471,-2.92627 -1.408471,-2.92627 0,0 5.649708,-2.63638 5.649708,-2.63638 0,0 -3.88581,-8.5185 -3.88581,-8.5185 0,0 -14.281177,6.24401 -14.281177,6.24401 0,0 23.021307,43.25966 23.021307,43.25966 0,0 -2e-5,-3e-5 -2e-5,-3e-5 M 72.260122,653.73835 c 0,0 17.137395,-7.49281 17.137395,-7.49281 0,0 0.0112,0.0256 0.0112,0.0256 0,0 2.85624,-1.2488 2.85624,-1.2488 0,0 -1.14393,-2.74149 -1.14393,-2.74149 0,0 -17.315974,7.07083 -17.315974,7.07083 0,0 -13.515678,-39.82389 -13.515678,-39.82389 0,0 9.028049,-2.44163 9.028049,-2.44163 0,0 0.818979,3.02478 0.818979,3.02478 0,0 -6.018696,1.62775 -6.018696,1.62775 0,0 2.753794,9.39206 2.753794,9.39206 0,0 14.826109,-4.81074 14.826109,-4.81074 0,0 -4.853387,-17.53096 -4.853387,-17.53096 0,0 -3.028718,0.73866 -3.028718,0.73866 0,0 4.05578,14.86207 4.05578,14.86207 0,0 -8.964505,2.66517 -8.964505,2.66517 0,0 -0.893963,-3.00352 -0.893963,-3.00352 0,0 5.976358,-1.77678 5.976358,-1.77678 0,0 -2.465673,-8.9911 -2.465673,-8.9911 0,0 -15.143579,3.69328 -15.143579,3.69328 0,0 15.880232,46.76161 15.880232,46.76161 0,0 -1.1e-5,-4e-5 -1.1e-5,-4e-5 M 55.636613,603.93248 c 0,0 18.172256,-4.43193 18.172256,-4.43193 0,0 0.0062,0.0271 0.0062,0.0271 0,0 3.028718,-0.73866 3.028718,-0.73866 0,0 -0.749892,-3.07131 -0.749892,-3.07131 0,0 -18.172256,4.43193 -18.172256,4.43193 0,0 -6.964919,-41.77368 -6.964919,-41.77368 0,0 9.316098,-0.8268 9.316098,-0.8268 0,0 0.346736,3.15378 0.346736,3.15378 0,0 -6.19482,0.70775 -6.19482,0.70775 0,0 1.19652,9.52154 1.19652,9.52154 0,0 15.437494,-2.15892 15.437494,-2.15892 0,0 -2.022051,-18.26579 -2.022051,-18.26579 0,0 -3.105376,0.2756 -3.105376,0.2756 0,0 1.605426,15.31863 1.605426,15.31863 0,0 -9.262475,1.29535 -9.262475,1.29535 0,0 -0.396042,-3.22699 -0.396042,-3.22699 0,0 6.19483,-0.70773 6.19483,-0.70773 0,0 -0.972202,-9.31012 -0.972202,-9.31012 0,0 -15.52683,1.37801 -15.52683,1.37801 0,0 8.062181,48.40228 8.062181,48.40228 0,0 -1e-5,-3e-5 -1e-5,-3e-5 m -8.339123,-51.52363 c 0,0 18.632154,-1.6536 18.632154,-1.6536 0,0 0.0021,0.0278 0.0021,0.0278 0,0 3.105377,-0.2756 3.105377,-0.2756 0,0 -0.213762,-2.95656 -0.213762,-2.95656 0,0 -18.668044,1.18234 -18.668044,1.18234 0,0 -0.190102,-42.07048 -0.190102,-42.07048 0,0 9.334839,0.5785 9.334839,0.5785 0,0 -0.194043,3.12757 -0.194043,3.12757 0,0 -6.223223,-0.38566 -6.223223,-0.38566 0,0 -0.333226,9.78033 -0.333226,9.78033 0,0 15.586713,0.19321 15.586713,0.19321 0,0 0.917592,-18.16895 0.917592,-18.16895 0,0 -3.105897,-0.26958 -3.105897,-0.26958 0,0 -0.851718,15.38336 -0.851718,15.38336 0,0 -9.346268,-0.34751 -9.346268,-0.34751 0,0 0.116563,-3.13141 0.116563,-3.13141 0,0 6.230867,0.23167 6.230867,0.23167 0,0 0.508289,-9.34778 0.508289,-9.34778 0,0 -15.558061,-0.96416 -15.558061,-0.96416 0,0 0.249485,49.06657 0.249485,49.06657 0,0 -1e-5,-4e-5 -1e-5,-4e-5 m 0.01789,-52.53598 c 0,0 18.635368,1.61746 18.635368,1.61746 0,0 -0.0021,0.0278 -0.0021,0.0278 0,0 3.105907,0.26958 3.105907,0.26958 0,0 0.273675,-3.14958 0.273675,-3.14958 0,0 -18.635367,-1.61746 -18.635367,-1.61746 0,0 6.508005,-41.54034 6.508005,-41.54034 0,0 9.14819,1.94437 9.14819,1.94437 0,0 -0.652184,3.06504 -0.652184,3.06504 0,0 -6.098786,-1.29624 -6.098786,-1.29624 0,0 -1.873923,9.40632 -1.873923,9.40632 0,0 15.321856,2.86615 15.321856,2.86615 0,0 3.855008,-17.98052 3.855008,-17.98052 0,0 -3.032608,-0.72254 -3.032608,-0.72254 0,0 -3.309965,15.04974 -3.309965,15.04974 0,0 -9.193086,-1.71968 -9.193086,-1.71968 0,0 0.629927,-3.18632 0.629927,-3.18632 0,0 6.098797,1.29625 6.098797,1.29625 0,0 2.021146,-9.14146 2.021146,-9.14146 0,0 -15.163049,-3.61268 -15.163049,-3.61268 0,0 -7.636498,48.42417 -7.636498,48.42417 0,0 1e-5,-4e-5 1e-5,-4e-5 m 8.363573,-51.47237 c 0,0 18.195625,4.33521 18.195625,4.33521 0,0 -0.0062,0.0272 -0.0062,0.0272 0,0 3.032607,0.72254 3.032607,0.72254 0,0 0.727605,-2.88031 0.727605,-2.88031 0,0 -18.084106,-4.77865 -18.084106,-4.77865 0,0 13.127333,-39.93611 13.127333,-39.93611 0,0 8.68383,3.47158 8.68383,3.47158 0,0 -1.164457,2.90946 -1.164457,2.90946 0,0 -5.789209,-2.31439 -5.789209,-2.31439 0,0 -3.430772,9.15937 -3.430772,9.15937 0,0 14.738063,5.07382 14.738063,5.07382 0,0 6.645953,-16.94533 6.645953,-16.94533 0,0 -2.86552,-1.22737 -2.86552,-1.22737 0,0 -5.684589,14.32427 -5.684589,14.32427 0,0 -8.765907,-3.25892 -8.765907,-3.25892 0,0 1.093123,-2.93697 1.093123,-2.93697 0,0 5.843955,2.17262 5.843955,2.17262 0,0 3.438405,-8.70882 3.438405,-8.70882 0,0 -14.47305,-5.78596 -14.47305,-5.78596 0,0 -15.262431,46.57686 -15.262431,46.57686 0,0 1.1e-5,-4e-5 1.1e-5,-4e-5 m 16.628387,-49.77297 c 0,0 17.193096,7.36427 17.193096,7.36427 0,0 -0.011,0.0257 -0.011,0.0257 0,0 2.86552,1.22737 2.86552,1.22737 0,0 1.24604,-2.90581 1.24604,-2.90581 0,0 -17.193084,-7.36427 -17.193084,-7.36427 0,0 19.480774,-37.55579 19.480774,-37.55579 0,0 7.966741,4.89676 7.966741,4.89676 0,0 -1.62611,2.72337 -1.62611,2.72337 0,0 -5.389461,-3.13371 -5.389461,-3.13371 0,0 -4.74918,8.33348 -4.74918,8.33348 0,0 13.661101,7.50294 13.661101,7.50294 0,0 9.23979,-15.68218 9.23979,-15.68218 0,0 -2.61481,-1.69674 -2.61481,-1.69674 0,0 -7.84721,13.1321 -7.84721,13.1321 0,0 -8.196651,-4.50177 -8.196651,-4.50177 0,0 1.62501,-2.81242 1.62501,-2.81242 0,0 5.389451,3.13371 5.389451,3.13371 0,0 4.80613,-8.03573 4.80613,-8.03573 0,0 -13.277901,-8.16126 -13.277901,-8.16126 0,0 -22.568268,43.51008 -22.568268,43.51008 0,0 1e-5,-4e-5 1e-5,-4e-5 m 24.395868,-46.46855 c 0,0 15.688791,10.1804 15.688791,10.1804 0,0 -0.0152,0.0234 -0.0152,0.0234 0,0 2.6148,1.69674 2.6148,1.69674 0,0 1.72255,-2.65158 1.72255,-2.65158 0,0 -15.68879,-10.1804 -15.68879,-10.1804 0,0 25.09744,-33.74392 25.09744,-33.74392 0,0 7.1608,6.01302 7.1608,6.01302 0,0 -2.01691,2.39917 -2.01691,2.39917 0,0 -4.77386,-4.00867 -4.77386,-4.00867 0,0 -6.04289,7.45223 -6.04289,7.45223 0,0 12.17823,9.72454 12.17823,9.72454 0,0 11.787,-14.11617 11.787,-14.11617 0,0 -2.33667,-2.06264 -2.33667,-2.06264 0,0 -9.92887,11.78575 -9.92887,11.78575 0,0 -7.30693,-5.83472 -7.30693,-5.83472 0,0 1.95712,-2.44814 1.95712,-2.44814 0,0 4.87129,3.88982 4.87129,3.88982 0,0 6.01361,-7.12754 6.01361,-7.12754 0,0 -11.68336,-10.31321 -11.68336,-10.31321 0,0 -29.298171,39.32196 -29.298171,39.32196 0,0 3e-5,-3e-5 3e-5,-3e-5 m 31.373761,-41.67068 c 0,0 14.02001,12.37582 14.02001,12.37582 0,0 -0.0185,0.0209 -0.0185,0.0209 0,0 2.33668,2.06264 2.33668,2.06264 0,0 2.09401,-2.36952 2.09401,-2.36952 0,0 -14.02001,-12.37584 -14.02001,-12.37584 0,0 30.40197,-29.46567 30.40197,-29.46567 0,0 6.01643,7.15674 6.01643,7.15674 0,0 -2.41047,2.06319 -2.41047,2.06319 0,0 -4.12762,-4.6707 -4.12762,-4.6707 0,0 -7.14471,6.40574 -7.14471,6.40574 0,0 10.60492,11.41802 10.60492,11.41802 0,0 13.73322,-11.94182 13.73322,-11.94182 0,0 -1.94602,-2.43428 -1.94602,-2.43428 0,0 -11.69216,10.04251 -11.69216,10.04251 0,0 -6.19141,-7.00602 -6.19141,-7.00602 0,0 2.34999,-2.07439 2.34999,-2.07439 0,0 4.12762,4.67069 4.12762,4.67069 0,0 7.10264,-6.10313 7.10264,-6.10313 0,0 -10.02738,-11.92788 -10.02738,-11.92788 0,0 -35.20926,34.15302 -35.20926,34.15302 0,0 2e-5,-3e-5 2e-5,-3e-5 m 37.8857,-36.3778 c 0,0 11.67607,14.6056 11.67607,14.6056 0,0 -0.0218,0.0175 -0.0218,0.0175 0,0 1.94602,2.43428 1.94602,2.43428 0,0 2.47129,-1.97338 2.47129,-1.97338 0,0 -11.67607,-14.6056 -11.67607,-14.6056 0,0 34.49244,-24.06853 34.49244,-24.06853 0,0 4.89954,7.96223 4.89954,7.96223 0,0 -2.67072,1.64154 -2.67072,1.64154 0,0 -3.26635,-5.30815 -3.26635,-5.30815 0,0 -8.0905,5.15773 -8.0905,5.15773 0,0 8.48849,13.06657 8.48849,13.06657 0,0 15.65329,-9.665 15.65329,-9.665 0,0 -1.56775,-2.69319 -1.56775,-2.69319 0,0 -13.15353,8.03847 -13.15353,8.03847 0,0 -5.09309,-7.83993 -5.09309,-7.83993 0,0 2.6297,-1.7064 2.6297,-1.7064 0,0 3.3954,5.22663 3.3954,5.22663 0,0 7.96779,-4.85017 7.96779,-4.85017 0,0 -7.83873,-13.46599 -7.83873,-13.46599 0,0 -40.24152,28.02592 -40.24152,28.02592 0,0 3e-5,-3e-5 3e-5,-3e-5 m 42.95164,-29.60171 c 0,0 9.40647,16.15916 9.40647,16.15916 0,0 -0.0241,0.014 -0.0241,0.014 0,0 1.56775,2.6932 1.56775,2.6932 0,0 2.57293,-1.48807 2.57293,-1.48807 0,0 -9.00863,-16.38403 -9.00863,-16.38403 0,0 37.92002,-18.18604 37.92002,-18.18604 0,0 3.47355,8.67891 3.47355,8.67891 0,0 -2.91111,1.16379 -2.91111,1.16379 0,0 -2.3157,-5.78595 -2.3157,-5.78595 0,0 -8.9771,3.89281 -8.9771,3.89281 0,0 6.48787,14.16557 6.48787,14.16557 0,0 16.82432,-6.96549 16.82432,-6.96549 0,0 -1.08693,-2.92033 -1.08693,-2.92033 0,0 -14.27519,5.82428 -14.27519,5.82428 0,0 -3.68421,-8.59167 -3.68421,-8.59167 0,0 2.88184,-1.23436 2.88184,-1.23436 0,0 2.45615,5.72779 2.45615,5.72779 0,0 8.66901,-3.54727 8.66901,-3.54727 0,0 -5.78925,-14.46484 -5.78925,-14.46484 0,0 -44.18771,21.24854 -44.18771,21.24854 0,0 4e-5,-2e-5 4e-5,-2e-5 m 47.43396,-22.4941 c 0,0 6.52155,17.52192 6.52155,17.52192 0,0 -0.0261,0.009 -0.0261,0.009 0,0 1.08692,2.92031 1.08692,2.92031 0,0 2.96475,-1.10221 2.96475,-1.10221 0,0 -6.52156,-17.52191 -6.52156,-17.52191 0,0 40.59329,-11.98692 40.59329,-11.98692 0,0 1.94546,9.14301 1.94546,9.14301 0,0 -3.08756,0.73303 -3.08756,0.73303 0,0 -1.4459,-6.06177 -1.4459,-6.06177 0,0 -9.30568,2.34112 -9.30568,2.34112 0,0 3.98446,15.06156 3.98446,15.06156 0,0 17.90644,-4.22878 17.90644,-4.22878 0,0 -0.64849,-3.04767 -0.64849,-3.04767 0,0 -15.02364,3.46314 -15.02364,3.46314 0,0 -2.39067,-9.03692 -2.39067,-9.03692 0,0 3.15065,-0.7949 3.15065,-0.7949 0,0 1.44589,6.06177 1.44589,6.06177 0,0 9.12978,-2.09471 9.12978,-2.09471 0,0 -3.24245,-15.23836 -3.24245,-15.23836 0,0 -47.03713,13.85859 -47.03713,13.85859 0,0 3e-5,-2e-5 3e-5,-2e-5 m 50.10394,-14.51041 c 0,0 3.89094,18.286 3.89094,18.286 0,0 -0.0272,0.005 -0.0272,0.005 0,0 0.64849,3.04767 0.64849,3.04767 0,0 2.91565,-0.57538 2.91565,-0.57538 0,0 -3.44133,-18.37582 -3.44133,-18.37582 0,0 41.73993,-5.26712 41.73993,-5.26712 0,0 0.57883,9.32956 0.57883,9.32956 0,0 -3.12935,0.19393 -3.12935,0.19393 0,0 -0.38588,-6.2197 -0.38588,-6.2197 0,0 -9.75495,0.82957 -9.75495,0.82957 0,0 1.73111,15.48272 1.73111,15.48272 0,0 18.15972,-1.26228 18.15972,-1.26228 0,0 -0.11591,-3.11366 -0.11591,-3.11366 0,0 -15.38243,1.00698 -15.38243,1.00698 0,0 -0.80918,-9.31239 -0.80918,-9.31239 0,0 3.12359,-0.27111 3.12359,-0.27111 0,0 0.53946,6.20827 0.53946,6.20827 0,0 9.34611,-0.62641 9.34611,-0.62641 0,0 -0.96473,-15.54926 -0.96473,-15.54926 0,0 -48.66282,6.18264 -48.66282,6.18264 0,0 5e-5,-1e-5 5e-5,-1e-5 m 52.14243,-6.32173 c 0,0 0.69544,18.68199 0.69544,18.68199 0,0 -0.0279,7.8e-4 -0.0279,7.8e-4 0,0 0.11591,3.11365 0.11591,3.11365 0,0 3.16103,-0.11753 3.16103,-0.11753 0,0 -0.69543,-18.68198 -0.69543,-18.68198 0,0 42.32248,1.48496 42.32248,1.48496 0,0 -1.03867,9.28965 -1.03867,9.28965 0,0 -3.16053,-0.28815 -3.16053,-0.28815 0,0 0.53946,-6.20825 0.53946,-6.20825 0,0 -9.57069,-0.72128 -9.57069,-0.72128 0,0 -0.9647,15.54923 -0.9647,15.54923 0,0 18.32201,1.65098 18.32201,1.65098 0,0 0.34623,-3.09656 0.34623,-3.09656 0,0 -15.34595,-1.47035 -15.34595,-1.47035 0,0 0.57882,-9.32952 0.57882,-9.32952 0,0 3.24095,0.25051 3.24095,0.25051 0,0 -0.53946,6.20828 -0.53946,6.20828 0,0 9.3236,0.89965 9.3236,0.89965 0,0 1.73111,-15.48275 1.73111,-15.48275 0,0 -49.03376,-1.73356 -49.03376,-1.73356 0,0 4e-5,-1e-5 4e-5,-1e-5 m 52.14976,2.08159 c 0,0 -2.07734,18.57926 -2.07734,18.57926 0,0 -0.0278,-0.003 -0.0278,-0.003 0,0 -0.34623,3.09657 -0.34623,3.09657 0,0 2.94635,0.38305 2.94635,0.38305 0,0 2.53431,-18.52254 2.53431,-18.52254 0,0 41.25634,8.2069 41.25634,8.2069 0,0 -2.39067,9.03693 -2.39067,9.03693 0,0 -3.0312,-0.80098 -3.0312,-0.80098 0,0 1.59379,-6.02463 1.59379,-6.02463 0,0 -9.51071,-2.30777 -9.51071,-2.30777 0,0 -3.24245,15.23832 -3.24245,15.23832 0,0 17.62902,4.55813 17.62902,4.55813 0,0 0.8703,-2.99196 0.8703,-2.99196 0,0 -14.9123,-3.91384 -14.9123,-3.91384 0,0 2.16884,-9.09265 2.16884,-9.09265 0,0 3.04989,0.72666 3.04989,0.72666 0,0 -1.44589,6.06177 -1.44589,6.06177 0,0 9.02579,2.35916 9.02579,2.35916 0,0 4.35147,-14.95979 4.35147,-14.95979 0,0 -48.44162,-9.62949 -48.44162,-9.62949 0,0 4e-5,0 4e-5,0 m 51.45237,10.50426 c 0,0 -5.22175,17.95173 -5.22175,17.95173 0,0 -0.0268,-0.007 -0.0268,-0.007 0,0 -0.87029,2.99196 -0.87029,2.99196 0,0 3.03748,0.88253 3.03748,0.88253 0,0 5.22174,-17.95171 5.22174,-17.95171 0,0 39.64741,14.80745 39.64741,14.80745 0,0 -3.89273,8.49936 -3.89273,8.49936 0,0 -2.89856,-1.29045 -2.89856,-1.29045 0,0 2.45615,-5.72779 2.45615,-5.72779 0,0 -8.85022,-3.70556 -8.85022,-3.70556 0,0 -5.78923,14.46481 -5.78923,14.46481 0,0 16.68876,7.28446 16.68876,7.28446 0,0 1.36632,-2.80066 1.36632,-2.80066 0,0 -14.09161,-6.25625 -14.09161,-6.25625 0,0 3.68421,-8.59166 3.68421,-8.59166 0,0 2.88185,1.23437 2.88185,1.23437 0,0 -2.45615,5.7278 -2.45615,5.7278 0,0 8.56178,3.79829 8.56178,3.79829 0,0 6.48789,-14.16561 6.48789,-14.16561 0,0 -45.93628,-17.14528 -45.93628,-17.14528 0,0 3e-5,1e-5 3e-5,1e-5 m 49.09134,18.60671 c 0,0 -8.19793,16.80388 -8.19793,16.80388 0,0 -0.0251,-0.0123 -0.0251,-0.0123 0,0 -1.36632,2.80066 -1.36632,2.80066 0,0 2.84325,1.38553 2.84325,1.38553 0,0 8.19794,-16.80386 8.19794,-16.80386 0,0 36.53895,20.82312 36.53895,20.82312 0,0 -5.09309,7.83997 -5.09309,7.83997 0,0 -2.62971,-1.7064 -2.62971,-1.7064 0,0 3.3954,-5.22664 3.3954,-5.22664 0,0 -8.1312,-5.09333 -8.1312,-5.09333 0,0 -8.16588,13.27035 -8.16588,13.27035 0,0 15.44765,9.98921 15.44765,9.98921 0,0 1.76128,-2.57096 1.76128,-2.57096 0,0 -12.90504,-8.43077 -12.90504,-8.43077 0,0 4.89951,-7.96219 4.89951,-7.96219 0,0 2.76628,1.7046 2.76628,1.7046 0,0 -3.3954,5.22665 -3.3954,5.22665 0,0 7.83184,5.13621 7.83184,5.13621 0,0 8.80639,-12.85473 8.80639,-12.85473 0,0 -42.57886,-24.31908 -42.57886,-24.31908 0,0 4e-5,2e-5 4e-5,2e-5 m 45.16594,26.08941 c 0,0 -10.56765,15.42566 -10.56765,15.42566 0,0 -0.023,-0.0157 -0.023,-0.0157 0,0 -1.76129,2.57095 -1.76129,2.57095 0,0 2.44635,1.68635 2.44635,1.68635 0,0 10.94325,-15.1618 10.94325,-15.1618 0,0 32.70598,26.45296 32.70598,26.45296 0,0 -6.36296,6.85081 -6.36296,6.85081 0,0 -2.33002,-2.15385 -2.33002,-2.15385 0,0 4.12762,-4.6707 4.12762,-4.6707 0,0 -7.22675,-6.31285 -7.22675,-6.31285 0,0 -10.02736,11.92786 -10.02736,11.92786 0,0 13.50423,12.19813 13.50423,12.19813 0,0 2.17697,-2.23038 2.17697,-2.23038 0,0 -11.38229,-10.39017 -11.38229,-10.39017 0,0 6.19141,-7.00602 6.19141,-7.00602 0,0 2.35,2.07439 2.35,2.07439 0,0 -4.12763,4.6707 -4.12763,4.6707 0,0 6.92075,6.30838 6.92075,6.30838 0,0 10.60494,-11.41804 10.60494,-11.41804 0,0 -38.16257,-30.80665 -38.16257,-30.80665 0,0 4e-5,3e-5 4e-5,3e-5 m 40.68708,33.20467 c 0,0 -13.06173,13.38221 -13.06173,13.38221 0,0 -0.02,-0.0194 -0.02,-0.0194 0,0 -2.17696,2.23038 -2.17696,2.23038 0,0 2.2643,2.20755 2.2643,2.20755 0,0 13.06174,-13.38219 13.06174,-13.38219 0,0 28.07632,31.32383 28.07632,31.32383 0,0 -7.30696,5.83474 -7.30696,5.83474 0,0 -1.9571,-2.44815 -1.9571,-2.44815 0,0 4.8713,-3.88983 4.8713,-3.88983 0,0 -6.10227,-7.4036 -6.10227,-7.4036 0,0 -11.93462,10.02167 -11.93462,10.02167 0,0 11.48993,14.35942 11.48993,14.35942 0,0 2.48281,-1.8844 2.48281,-1.8844 0,0 -9.56891,-12.08019 -9.56891,-12.08019 0,0 7.16076,-6.01298 7.16076,-6.01298 0,0 2.07953,2.49685 2.07953,2.49685 0,0 -4.87128,3.88984 -4.87128,3.88984 0,0 5.80333,7.34872 5.80333,7.34872 0,0 12.41407,-9.42201 12.41407,-9.42201 0,0 -32.7043,-36.55242 -32.7043,-36.55242 0,0 3e-5,3e-5 3e-5,3e-5 m 34.60053,39.048 c 0,0 -14.89686,11.30639 -14.89686,11.30639 0,0 -0.017,-0.0223 -0.017,-0.0223 0,0 -2.48282,1.88441 -2.48282,1.88441 0,0 1.78129,2.377 1.78129,2.377 0,0 15.1704,-10.93706 15.1704,-10.93706 0,0 22.6407,35.4316 22.6407,35.4316 0,0 -8.19667,4.50176 -8.19667,4.50176 0,0 -1.51,-2.74623 -1.51,-2.74623 0,0 5.46445,-3.00118 5.46445,-3.00118 0,0 -4.94266,-8.44195 -4.94266,-8.44195 0,0 -13.27787,8.16124 -13.27787,8.16124 0,0 8.93973,15.85507 8.93973,15.85507 0,0 2.76806,-1.43348 2.76806,-1.43348 0,0 -7.50485,-13.46095 -7.50485,-13.46095 0,0 8.08414,-4.70057 8.08414,-4.70057 0,0 1.57669,2.70853 1.57669,2.70853 0,0 -5.38945,3.13372 -5.38945,3.13372 0,0 4.56954,8.17263 4.56954,8.17263 0,0 13.66111,-7.50295 13.66111,-7.50295 0,0 -26.43808,-41.2858 -26.43808,-41.2858 0,0 2e-5,3e-5 2e-5,3e-5 m 28.0621,44.3593 c 0,0 -16.60835,8.60087 -16.60835,8.60087 0,0 -0.0129,-0.0248 -0.0129,-0.0248 0,0 -2.76806,1.43348 -2.76806,1.43348 0,0 1.45527,2.80699 1.45527,2.80699 0,0 16.60836,-8.60085 16.60836,-8.60085 0,0 16.79109,38.82994 16.79109,38.82994 0,0 -8.84285,3.0443 -8.84285,3.0443 0,0 -1.09423,-2.97692 -1.09423,-2.97692 0,0 5.84396,-2.17264 5.84396,-2.17264 0,0 -3.44871,-8.94916 -3.44871,-8.94916 0,0 -14.47301,5.78595 -14.47301,5.78595 0,0 6.36235,17.25621 6.36235,17.25621 0,0 2.94762,-1.01477 2.94762,-1.01477 0,0 -5.25091,-14.48918 -5.25091,-14.48918 0,0 8.6838,-3.47156 8.6838,-3.47156 0,0 1.16376,3.03187 1.16376,3.03187 0,0 -5.84396,2.17263 -5.84396,2.17263 0,0 3.18285,8.80508 3.18285,8.80508 0,0 14.73808,-5.07383 14.73808,-5.07383 0,0 -19.43423,-44.99367 -19.43423,-44.99367 0,0 2e-5,3e-5 2e-5,3e-5 m 20.45537,47.95644 c 0,0 -17.68568,6.08859 -17.68568,6.08859 0,0 -0.009,-0.0264 -0.009,-0.0264 0,0 -2.94761,1.01477 -2.94761,1.01477 0,0 0.91676,2.82637 0.91676,2.82637 0,0 17.82905,-5.65552 17.82905,-5.65552 0,0 10.26742,40.7672 10.26742,40.7672 0,0 -9.19313,1.7197 -9.19313,1.7197 0,0 -0.57682,-3.08011 -0.57682,-3.08011 0,0 6.12875,-1.14645 6.12875,-1.14645 0,0 -1.94876,-9.39137 -1.94876,-9.39137 0,0 -15.24696,3.24058 -15.24696,3.24058 0,0 3.47863,18.05678 3.47863,18.05678 0,0 3.07753,-0.49789 3.07753,-0.49789 0,0 -2.85458,-15.14197 -2.85458,-15.14197 0,0 9.14817,-1.94435 9.14817,-1.94435 0,0 0.65219,3.06503 0.65219,3.06503 0,0 -6.0988,1.29625 -6.0988,1.29625 0,0 1.73397,9.16133 1.73397,9.16133 0,0 15.38764,-2.48946 15.38764,-2.48946 0,0 -12.05869,-47.86315 -12.05869,-47.86315 0,0 1e-5,4e-5 1e-5,4e-5 m 12.55956,50.95712 c 0,0 -18.46514,2.98735 -18.46514,2.98735 0,0 -0.005,-0.0274 -0.005,-0.0274 0,0 -3.07752,0.49789 -3.07752,0.49789 0,0 0.50546,3.12081 0.50546,3.12081 0,0 18.46515,-2.98735 18.46515,-2.98735 0,0 3.61081,42.16599 3.61081,42.16599 0,0 -9.35205,0.11593 -9.35205,0.11593 0,0 -0.0806,-3.17093 -0.0806,-3.17093 0,0 6.23087,-0.23168 6.23087,-0.23168 0,0 -0.44174,-9.58263 -0.44174,-9.58263 0,0 -15.55803,0.96417 -15.55803,0.96417 0,0 0.57493,18.37582 0.57493,18.37582 0,0 3.11735,-0.0387 3.11735,-0.0387 0,0 -0.38662,-15.40244 -0.38662,-15.40244 0,0 9.33481,-0.5785 9.33481,-0.5785 0,0 0.1273,3.24665 0.1273,3.24665 0,0 -6.23086,0.23168 -6.23086,0.23168 0,0 0.23415,9.35847 0.23415,9.35847 0,0 15.58674,-0.1932 15.58674,-0.1932 0,0 -4.19053,-48.8519 -4.19053,-48.8519 0,0 0,3e-5 0,3e-5 m -2.08374,58.52245 c 0,0 -18.70406,-0.23185 -18.70406,-0.23185 0,0 0.0781,-6.29452 0.0781,-6.29452 0,0 -3.11736,-0.0387 -3.11736,-0.0387 0,0 -0.15053,9.07942 -0.15053,9.07942 0,0 18.69256,0.69504 18.69256,0.69504 0,0 -0.8844,15.87222 -0.8844,15.87222 0,0 -9.31767,-0.80873 -9.31767,-0.80873 0,0 0.23393,-3.00885 0.23393,-3.00885 0,0 6.2232,0.38566 6.2232,0.38566 0,0 0.51295,-9.42473 0.51295,-9.42473 0,0 -15.57713,-0.5792 -15.57713,-0.5792 0,0 -3.60805,35.6408 -3.60805,35.6408 0,0 3.07752,0.49789 3.07752,0.49789 0,0 3.53637,-33.16122 3.53637,-33.16122 0,0 9.33481,0.57849 9.33481,0.57849 0,0 -0.19404,3.12757 -0.19404,3.12757 0,0 -6.22319,-0.38567 -6.22319,-0.38567 0,0 -0.69353,9.18151 -0.69353,9.18151 0,0 15.52946,1.34789 15.52946,1.34789 0,0 1.25104,-22.47308 1.25104,-22.47308 0,0 0,0 0,0 m -5.17974,51.16309 c 0,0 -18.38622,-3.43937 -18.38622,-3.43937 0,0 1.02504,-5.93917 1.02504,-5.93917 0,0 -3.07753,-0.4979 -3.07753,-0.4979 0,0 -1.58872,8.94392 -1.58872,8.94392 0,0 18.38624,3.43937 18.38624,3.43937 0,0 -3.41335,15.52442 -3.41335,15.52442 0,0 -9.0978,-2.16761 -9.0978,-2.16761 0,0 0.72707,-3.04815 0.72707,-3.04815 0,0 6.06518,1.44507 6.06518,1.44507 0,0 2.03875,-9.21569 2.03875,-9.21569 0,0 -15.24696,-3.24062 -15.24696,-3.24062 0,0 -9.26554,34.62274 -9.26554,34.62274 0,0 2.94761,1.01475 2.94761,1.01475 0,0 8.71514,-31.92432 8.71514,-31.92432 0,0 9.14817,1.94436 9.14817,1.94436 0,0 -0.65219,3.06504 -0.65219,3.06504 0,0 -6.09876,-1.29624 -6.09876,-1.29624 0,0 -2.13302,8.76355 -2.13302,8.76355 0,0 15.07008,3.9822 15.07008,3.9822 0,0 4.83681,-21.97635 4.83681,-21.97635 0,0 0,0 0,0 m -13.25189,49.4822 c 0,0 -17.68568,-6.08859 -17.68568,-6.08859 0,0 2.05133,-5.95181 2.05133,-5.95181 0,0 -2.94763,-1.01476 -2.94763,-1.01476 0,0 -3.01864,8.57055 -3.01864,8.57055 0,0 17.53185,6.51787 17.53185,6.51787 0,0 -5.86647,14.77246 -5.86647,14.77246 0,0 -8.59653,-3.68214 -8.59653,-3.68214 0,0 1.23507,-2.88021 1.23507,-2.88021 0,0 5.73101,2.45474 5.73101,2.45474 0,0 3.48182,-8.8142 3.48182,-8.8142 0,0 -14.60987,-5.43155 -14.60987,-5.43155 0,0 -14.73135,32.67887 -14.73135,32.67887 0,0 2.76806,1.43349 2.76806,1.43349 0,0 13.8571,-30.34906 13.8571,-30.34906 0,0 8.6838,3.47156 8.6838,3.47156 0,0 -1.16446,2.90945 -1.16446,2.90945 0,0 -5.78919,-2.31436 -5.78919,-2.31436 0,0 -3.56259,8.49411 -3.56259,8.49411 0,0 14.32758,6.13689 14.32758,6.13689 0,0 8.30479,-20.91331 8.30479,-20.91331 0,0 0,0 0,0 m -21.12503,46.87516 c 0,0 -16.39331,-9.00352 -16.39331,-9.00352 0,0 2.86129,-5.30689 2.86129,-5.30689 0,0 -2.76806,-1.43347 -2.76806,-1.43347 0,0 -4.33545,7.98601 -4.33545,7.98601 0,0 16.39332,9.00352 16.39332,9.00352 0,0 -8.21679,13.7426 -8.21679,13.7426 0,0 -7.84438,-5.09019 -7.84438,-5.09019 0,0 1.5836,-2.57103 1.5836,-2.57103 0,0 5.31112,3.26449 5.31112,3.26449 0,0 4.846,-8.10071 4.846,-8.10071 0,0 -13.4736,-7.83428 -13.4736,-7.83428 0,0 -19.76269,29.89799 -19.76269,29.89799 0,0 2.48282,1.88439 2.48282,1.88439 0,0 18.39792,-27.50698 18.39792,-27.50698 0,0 8.08414,4.70056 8.08414,4.70056 0,0 -1.58768,2.65758 -1.58768,2.65758 0,0 -5.31113,-3.26449 -5.31113,-3.26449 0,0 -4.89267,7.80396 -4.89267,7.80396 0,0 13.07398,8.48367 13.07398,8.48367 0,0 11.55157,-19.31321 11.55157,-19.31321 0,0 0,0 0,0 m -28.36407,42.89622 c 0,0 -14.61388,-11.66947 -14.61388,-11.66947 0,0 3.66179,-4.7878 3.66179,-4.7878 0,0 -2.48281,-1.8844 -2.48281,-1.8844 0,0 -5.57173,7.17544 -5.57173,7.17544 0,0 14.61387,11.66945 14.61387,11.66945 0,0 -10.24551,12.15873 -10.24551,12.15873 0,0 -7.01001,-6.1879 -7.01001,-6.1879 0,0 2.07558,-2.34865 2.07558,-2.34865 0,0 4.67332,4.12526 4.67332,4.12526 0,0 6.11387,-7.2442 6.11387,-7.2442 0,0 -12.17823,-9.72455 -12.17823,-9.72455 0,0 -24.32209,26.30793 -24.32209,26.30793 0,0 2.17695,2.23037 2.17695,2.23037 0,0 22.7438,-24.39452 22.7438,-24.39452 0,0 7.16076,6.01298 7.16076,6.01298 0,0 -2.01689,2.39918 -2.01689,2.39918 0,0 -4.77384,-4.00866 -4.77384,-4.00866 0,0 -6.06547,6.93088 -6.06547,6.93088 0,0 11.68334,10.31318 11.68334,10.31318 0,0 14.37718,-17.07325 14.37718,-17.07325 0,0 0,0 0,0 m -34.77832,37.64424 c 0,0 -12.7259,-13.70162 -12.7259,-13.70162 0,0 4.39553,-4.12242 4.39553,-4.12242 0,0 -2.17696,-2.23037 -2.17696,-2.23037 0,0 -6.38462,5.96332 -6.38462,5.96332 0,0 12.38285,14.01207 12.38285,14.01207 0,0 -12.06839,10.35537 -12.06839,10.35537 0,0 -5.83803,-7.30278 -5.83803,-7.30278 0,0 2.32017,-1.93196 2.32017,-1.93196 0,0 4.01092,4.77114 4.01092,4.77114 0,0 7.16153,-6.15272 7.16153,-6.15272 0,0 -10.31904,-11.67672 -10.31904,-11.67672 0,0 -28.21436,22.09802 -28.21436,22.09802 0,0 1.76128,2.57095 1.76128,2.57095 0,0 26.16691,-20.25923 26.16691,-20.25923 0,0 6.19141,7.00603 6.19141,7.00603 0,0 -2.35267,2.01233 -2.35267,2.01233 0,0 -4.01093,-4.77114 -4.01093,-4.77114 0,0 -7.11076,5.85502 -7.11076,5.85502 0,0 9.73005,12.17134 9.73005,12.17134 0,0 17.08101,-14.66663 17.08101,-14.66663 0,0 0,0 0,0 m -40.50129,31.71341 c 0,0 -10.18617,-15.67989 -10.18617,-15.67989 0,0 4.99251,-3.38122 4.99251,-3.38122 0,0 -1.76128,-2.57094 -1.76128,-2.57094 0,0 -7.55863,5.04524 -7.55863,5.04524 0,0 10.18617,15.67991 10.18617,15.67991 0,0 -13.56834,8.29069 -13.56834,8.29069 0,0 -4.70323,-8.07957 -4.70323,-8.07957 0,0 2.71008,-1.57579 2.71008,-1.57579 0,0 3.13549,5.38637 3.13549,5.38637 0,0 8.09861,-4.92863 8.09861,-4.92863 0,0 -8.48848,-13.06658 -8.48848,-13.06658 0,0 -31.42508,17.2669 -31.42508,17.2669 0,0 1.36633,2.80066 1.36633,2.80066 0,0 29.31204,-15.95455 29.31204,-15.95455 0,0 4.89952,7.9622 4.89952,7.9622 0,0 -2.67072,1.64155 -2.67072,1.64155 0,0 -3.26632,-5.30813 -3.26632,-5.30813 0,0 -7.78848,4.55615 -7.78848,4.55615 0,0 7.50719,13.65336 7.50719,13.65336 0,0 19.20879,-11.73773 19.20879,-11.73773 0,0 0,0 0,0 m -44.89815,24.70266 c 0,0 -7.78545,-16.99866 -7.78545,-16.99866 0,0 5.48153,-2.51683 5.48153,-2.51683 0,0 -1.36632,-2.80066 -1.36632,-2.80066 0,0 -7.96439,3.6197 -7.96439,3.6197 0,0 7.36844,17.18337 7.36844,17.18337 0,0 -14.72536,6.0017 -14.72536,6.0017 0,0 -3.26077,-8.76091 -3.26077,-8.76091 0,0 2.82097,-1.08066 2.82097,-1.08066 0,0 2.31569,5.78591 2.31569,5.78591 0,0 8.73955,-3.57558 8.73955,-3.57558 0,0 -6.14036,-14.31945 -6.14036,-14.31945 0,0 -33.7825,12.02639 -33.7825,12.02639 0,0 0.87029,2.99195 0.87029,2.99195 0,0 31.50385,-11.02274 31.50385,-11.02274 0,0 3.47352,8.67888 3.47352,8.67888 0,0 -2.91109,1.1638 -2.91109,1.1638 0,0 -2.31568,-5.78592 -2.31568,-5.78592 0,0 -8.5998,3.30959 -8.5998,3.30959 0,0 5.43463,14.60155 5.43463,14.60155 0,0 20.84325,-8.50143 20.84325,-8.50143 0,0 0,0 0,0 m -48.45698,17.25018 c 0,0 -4.78134,-18.07387 -4.78134,-18.07387 0,0 5.8096,-1.62004 5.8096,-1.62004 0,0 -0.87029,-2.99193 -0.87029,-2.99193 0,0 -8.76739,2.40062 -8.76739,2.40062 0,0 4.78134,18.07387 4.78134,18.07387 0,0 -15.4965,3.5734 -15.4965,3.5734 0,0 -1.94547,-9.14292 -1.94547,-9.14292 0,0 3.06678,-0.65184 3.06678,-0.65184 0,0 1.29697,6.09532 1.29697,6.09532 0,0 9.20442,-2.11071 9.20442,-2.11071 0,0 -3.61472,-15.15443 -3.61472,-15.15443 0,0 -35.26206,6.47493 -35.26206,6.47493 0,0 0.34621,3.09658 0.34621,3.09658 0,0 32.5889,-5.81395 32.5889,-5.81395 0,0 2.16883,9.09266 2.16883,9.09266 0,0 -3.01329,0.7154 -3.01329,0.7154 0,0 -1.29697,-6.09532 -1.29697,-6.09532 0,0 -9.02211,1.87242 -9.02211,1.87242 0,0 2.86776,15.31319 2.86776,15.31319 0,0 21.93933,-5.05338 21.93933,-5.05338 0,0 0,0 0,0 m -50.41475,9.2473 c 0,0 -2.07734,-18.57927 -2.07734,-18.57927 0,0 6.2596,-0.69905 6.2596,-0.69905 0,0 -0.34622,-3.09658 -0.34622,-3.09658 0,0 -9.0378,0.94793 -9.0378,0.94793 0,0 1.61837,18.62477 1.61837,18.62477 0,0 -15.87185,1.03494 -15.87185,1.03494 0,0 -0.34772,-9.34093 -0.34772,-9.34093 0,0 3.0174,-0.11537 3.0174,-0.11537 0,0 0.38588,6.21966 0.38588,6.21966 0,0 9.42296,-0.63129 9.42296,-0.63129 0,0 -1.34864,-15.5207 -1.34864,-15.5207 0,0 -35.81822,0.70678 -35.81822,0.70678 0,0 -0.11838,3.11356 -0.11838,3.11356 0,0 33.34921,-0.49559 33.34921,-0.49559 0,0 0.57883,9.32949 0.57883,9.32949 0,0 -3.12935,0.19396 -3.12935,0.19396 0,0 -0.38589,-6.21966 -0.38589,-6.21966 0,0 -9.20288,0.42197 -9.20288,0.42197 0,0 0.57953,15.56831 0.57953,15.56831 0,0 22.47251,-1.46293 22.47251,-1.46293 0,0 0,0 0,0 m -51.45961,1.02544 c 0,0 1.183,-18.65748 1.183,-18.65748 0,0 6.01462,0.29649 6.01462,0.29649 0,0 0.11837,-3.11356 0.11837,-3.11356 0,0 -9.0649,-0.4907 -9.0649,-0.4907 0,0 -1.18299,18.65749 -1.18299,18.65749 0,0 -15.83974,-1.50179 -15.83974,-1.50179 0,0 1.0622,-9.28693 1.0622,-9.28693 0,0 3.11507,0.3559 3.11507,0.3559 0,0 -0.70813,6.1913 -0.70813,6.1913 0,0 9.40158,0.90182 9.40158,0.90182 0,0 1.37879,-15.51798 1.37879,-15.51798 0,0 -35.80861,-5.03289 -35.80861,-5.03289 0,0 -0.58663,3.06022 -0.58663,3.06022 0,0 32.99643,4.79911 32.99643,4.79911 0,0 -0.82728,9.31079 -0.82728,9.31079 0,0 -3.12305,-0.27716 -3.12305,-0.27716 0,0 0.55151,-6.2072 0.55151,-6.2072 0,0 -8.95245,-1.03673 -8.95245,-1.03673 0,0 -2.16014,15.42877 -2.16014,15.42877 0,0 22.43235,2.12053 22.43235,2.12053 0,0 0,0 0,0 m -50.78522,-7.1442 c 0,0 3.97893,-18.26699 3.97893,-18.26699 0,0 5.88888,1.27317 5.88888,1.27317 0,0 0.58663,-3.06022 0.58663,-3.06022 0,0 -8.52736,-1.8753 -8.52736,-1.8753 0,0 -4.43446,18.1619 -4.43446,18.1619 0,0 -15.38727,-4.03284 -15.38727,-4.03284 0,0 2.66668,-8.95947 2.66668,-8.95947 0,0 2.90445,0.82268 2.90445,0.82268 0,0 -1.62867,6.01533 -1.62867,6.01533 0,0 9.13792,2.38444 9.13792,2.38444 0,0 3.69537,-15.13495 3.69537,-15.13495 0,0 -34.21323,-10.6471 -34.21323,-10.6471 0,0 -1.10786,2.91245 -1.10786,2.91245 0,0 31.53604,10.01877 31.53604,10.01877 0,0 -2.21722,9.08098 -2.21722,9.08098 0,0 -2.99017,-0.80374 -2.99017,-0.80374 0,0 1.62866,-6.01526 1.62866,-6.01526 0,0 -8.86161,-2.51353 -8.86161,-2.51353 0,0 -4.44446,14.93243 -4.44446,14.93243 0,0 21.78875,5.70725 21.78875,5.70725 0,0 0,0 0,0 m -49.13261,-15.29194 c 0,0 7.07483,-17.30615 7.07483,-17.30615 0,0 5.61721,2.19132 5.61721,2.19132 0,0 1.10786,-2.91245 1.10786,-2.91245 0,0 -8.44836,-3.34842 -8.44836,-3.34842 0,0 -7.07486,17.30618 -7.07486,17.30618 0,0 -14.5329,-6.45512 -14.5329,-6.45512 0,0 3.95678,-8.46973 3.95678,-8.46973 0,0 2.84095,1.32571 2.84095,1.32571 0,0 -2.63785,5.64647 -2.63785,5.64647 0,0 8.62393,3.84606 8.62393,3.84606 0,0 6.24754,-14.27309 6.24754,-14.27309 0,0 -32.08489,-16.02701 -32.08489,-16.02701 0,0 -1.58659,2.68215 -1.58659,2.68215 0,0 29.54946,14.94356 29.54946,14.94356 0,0 -3.74852,8.56385 -3.74852,8.56385 0,0 -2.87251,-1.25593 -2.87251,-1.25593 0,0 2.499,-5.70922 2.499,-5.70922 0,0 -8.16532,-3.8425 -8.16532,-3.8425 0,0 -6.93688,13.95148 -6.93688,13.95148 0,0 20.57112,9.14284 20.57112,9.14284 0,0 0,0 0,0 m -45.83705,-22.90481 c 0,0 9.51953,-16.0929 9.51953,-16.0929 0,0 5.42193,3.20363 5.42193,3.20363 0,0 1.58658,-2.68215 1.58658,-2.68215 0,0 -7.79719,-4.67931 -7.79719,-4.67931 0,0 -9.90524,15.85867 -9.90524,15.85867 0,0 -13.29852,-8.70942 -13.29852,-8.70942 0,0 5.32839,-7.68212 5.32839,-7.68212 0,0 2.57678,1.78523 2.57678,1.78523 0,0 -3.55226,5.12142 -3.55226,5.12142 0,0 7.93681,5.18244 7.93681,5.18244 0,0 8.25435,-13.21558 8.25435,-13.21558 0,0 -29.09753,-20.99991 -29.09753,-20.99991 0,0 -1.9555,2.42668 -1.9555,2.42668 0,0 26.98326,19.66813 26.98326,19.66813 0,0 -5.14217,7.80787 -5.14217,7.80787 0,0 -2.61896,-1.72286 -2.61896,-1.72286 0,0 3.42811,-5.20525 3.42811,-5.20525 0,0 -7.61352,-5.19415 -7.61352,-5.19415 0,0 -8.88067,12.80359 -8.88067,12.80359 0,0 18.82582,12.32599 18.82582,12.32599 0,0 0,0 0,0 m -41.69056,-30.07921 c 0,0 12.07765,-14.27573 12.07765,-14.27573 0,0 4.63101,3.8716 4.63101,3.8716 0,0 1.9555,-2.42668 1.9555,-2.42668 0,0 -6.70703,-5.63714 -6.70703,-5.63714 0,0 -12.41514,13.98356 -12.41514,13.98356 0,0 -11.72977,-10.72529 -11.72977,-10.72529 0,0 6.53407,-6.68799 6.53407,-6.68799 0,0 2.19412,2.07926 2.19412,2.07926 0,0 -4.24843,4.56119 -4.24843,4.56119 0,0 6.97399,6.36244 6.97399,6.36244 0,0 10.34595,-11.65297 10.34595,-11.65297 0,0 -25.38478,-25.37134 -25.38478,-25.37134 0,0 -2.33192,2.06804 -2.33192,2.06804 0,0 23.3023,23.55409 23.3023,23.55409 0,0 -6.20756,6.99177 -6.20756,6.99177 0,0 -2.27885,-2.09751 -2.27885,-2.09751 0,0 4.24844,-4.56118 4.24844,-4.56118 0,0 -6.67853,-6.35232 -6.67853,-6.35232 0,0 -10.89014,11.14665 -10.89014,11.14665 0,0 16.60912,15.16955 16.60912,15.16955 0,0 0,0 0,0 m -36.35007,-36.33408 c 0,0 14.28381,-12.07081 14.28381,-12.07081 0,0 3.96145,4.55381 3.96145,4.55381 0,0 2.33193,-2.06804 2.33193,-2.06804 0,0 -5.93715,-6.89042 -5.93715,-6.89042 0,0 -14.28382,12.0708 -14.28382,12.0708 0,0 -9.88081,-12.44805 -9.88081,-12.44805 0,0 7.42233,-5.68738 7.42233,-5.68738 0,0 1.90768,2.48682 1.90768,2.48682 0,0 -4.94821,3.79157 -4.94821,3.79157 0,0 5.85885,7.40116 5.85885,7.40116 0,0 12.14021,-9.77195 12.14021,-9.77195 0,0 -21.01073,-29.08182 -21.01073,-29.08182 0,0 -2.64463,1.64994 -2.64463,1.64994 0,0 19.26067,26.94578 19.26067,26.94578 0,0 -7.28412,5.86315 -7.28412,5.86315 0,0 -1.93845,-2.41525 -1.93845,-2.41525 0,0 4.94822,-3.79156 4.94822,-3.79156 0,0 -5.56911,-7.34253 -5.56911,-7.34253 0,0 -12.59415,9.18016 -12.59415,9.18016 0,0 13.97603,17.62462 13.97603,17.62462 0,0 0,0 0,0 M 98.417917,691.08673 c 0,0 16.102003,-9.51414 16.102003,-9.51414 0,0 3.18982,5.12046 3.18982,5.12046 0,0 2.64462,-1.64994 2.64462,-1.64994 0,0 -4.7464,-7.75366 -4.7464,-7.75366 0,0 -16.102013,9.51415 -16.102013,9.51415 0,0 -7.75349,-13.87451 -7.75349,-13.87451 0,0 8.271953,-4.36196 8.271953,-4.36196 0,0 1.46312,2.77147 1.46312,2.77147 0,0 -5.514623,2.90797 -5.514623,2.90797 0,0 4.621083,8.2739 4.621083,8.2739 0,0 13.41834,-7.92846 13.41834,-7.92846 0,0 -16.034913,-32.06732 -16.034913,-32.06732 0,0 -2.85623,1.24879 -2.85623,1.24879 0,0 14.791933,29.90751 14.791933,29.90751 0,0 -8.16374,4.5611 -8.16374,4.5611 0,0 -1.5299,-2.73521 -1.5299,-2.73521 0,0 5.44249,-3.04073 5.44249,-3.04073 0,0 -4.34333,-8.1245 -4.34333,-8.1245 0,0 -13.786623,7.26997 -13.786623,7.26997 0,0 10.8859,19.47511 10.8859,19.47511 0,0 0,0 0,0 M 75.50516,645.27233 c 0,0 17.315977,-7.07084 17.315977,-7.07084 0,0 2.30003,5.57196 2.30003,5.57196 0,0 2.85624,-1.2488 2.85624,-1.2488 0,0 -3.30976,-8.08968 -3.30976,-8.08968 0,0 -17.484604,6.64339 -17.484604,6.64339 0,0 -5.409973,-14.94897 -5.409973,-14.94897 0,0 8.895657,-2.88643 8.895657,-2.88643 0,0 0.973856,2.85653 0.973856,2.85653 0,0 -5.881032,2.07022 -5.881032,2.07022 0,0 3.22142,8.87237 3.22142,8.87237 0,0 14.570496,-5.53616 14.570496,-5.53616 0,0 -10.65183,-34.19425 -10.65183,-34.19425 0,0 -3.028707,0.73865 -3.028707,0.73865 0,0 9.652267,31.63379 9.652267,31.63379 0,0 -8.742299,3.32168 -8.742299,3.32168 0,0 -1.03922,-2.91559 -1.03922,-2.91559 0,0 5.881021,-2.0702 5.881021,-2.0702 0,0 -2.958923,-8.71963 -2.958923,-8.71963 0,0 -14.82612,4.81074 -14.82612,4.81074 0,0 7.665504,21.16122 7.665504,21.16122 0,0 0,0 0,0 M 60.210854,596.16609 c 0,0 18.277399,-3.97668 18.277399,-3.97668 0,0 1.384656,5.86088 1.384656,5.86088 0,0 3.028718,-0.73865 3.028718,-0.73865 0,0 -2.034063,-8.84687 -2.034063,-8.84687 0,0 -18.27741,3.97668 -18.27741,3.97668 0,0 -2.930261,-15.62792 -2.930261,-15.62792 0,0 9.226949,-1.52786 9.226949,-1.52786 0,0 0.512481,3.09143 0.512481,3.09143 0,0 -6.151286,1.01857 -6.151286,1.01857 0,0 1.724985,9.28056 1.724985,9.28056 0,0 15.309449,-2.93152 15.309449,-2.93152 0,0 -5.034628,-35.78847 -5.034628,-35.78847 0,0 -3.105376,0.27559 -3.105376,0.27559 0,0 4.488129,33.02159 4.488129,33.02159 0,0 -9.185661,1.75891 -9.185661,1.75891 0,0 -0.589971,-3.07761 -0.589971,-3.07761 0,0 6.123746,-1.17259 6.123746,-1.17259 0,0 -1.485057,-8.88555 -1.485057,-8.88555 0,0 -15.437494,2.15891 -15.437494,2.15891 0,0 4.154695,22.1306 4.154695,22.1306 0,0 0,0 0,0 m -7.142489,-50.75727 c 0,0 18.668024,-1.18234 18.668024,-1.18234 0,0 0.406078,6.00531 0.406078,6.00531 0,0 3.105366,-0.2756 3.105366,-0.2756 0,0 -0.571646,-8.70012 -0.571646,-8.70012 0,0 -18.691985,0.70982 -18.691985,0.70982 0,0 -0.394909,-15.78004 -0.394909,-15.78004 0,0 9.351978,-0.11827 9.351978,-0.11827 0,0 0.03973,3.13332 0.03973,3.13332 0,0 -6.234642,0.0789 -6.234642,0.0789 0,0 0.234187,9.43651 0.234187,9.43651 0,0 15.576657,-0.59151 15.576657,-0.59151 0,0 0.70851,-35.79791 0.70851,-35.79791 0,0 -3.105886,-0.26957 -3.105886,-0.26957 0,0 -0.837013,33.05446 -0.837013,33.05446 0,0 -9.345977,0.35492 -9.345977,0.35492 0,0 -0.07353,-3.09301 -0.07353,-3.09301 0,0 6.234642,-0.0789 6.234642,-0.0789 0,0 -0.04066,-9.20482 -0.04066,-9.20482 0,0 -15.586703,-0.19321 -15.586703,-0.19321 0,0 0.55769,22.51205 0.55769,22.51205 0,0 0,0 0,0 m 1.032792,-51.4303 c 0,0 18.589795,2.07616 18.589795,2.07616 0,0 -0.53118,6.00255 -0.53118,6.00255 0,0 3.105896,0.26957 3.105896,0.26957 0,0 0.871791,-9.04029 0.871791,-9.04029 0,0 -18.589795,-2.07616 -18.589795,-2.07616 0,0 2.154671,-15.74884 2.154671,-15.74884 0,0 9.232554,1.49368 9.232554,1.49368 0,0 -0.501009,3.0933 -0.501009,3.0933 0,0 -6.15503,-0.99577 -6.15503,-0.99577 0,0 -1.28469,9.38946 -1.28469,9.38946 0,0 15.491501,1.73015 15.491501,1.73015 0,0 6.479925,-35.24187 6.479925,-35.24187 0,0 -3.032618,-0.72254 -3.032618,-0.72254 0,0 -6.175309,32.77744 -6.175309,32.77744 0,0 -9.266501,-1.26643 -9.266501,-1.26643 0,0 0.424788,-3.10468 0.424788,-3.10468 0,0 6.17766,0.84429 6.17766,0.84429 0,0 1.419828,-9.09877 1.419828,-9.09877 0,0 -15.387615,-2.48946 -15.387615,-2.48946 0,0 -3.024662,22.10821 -3.024662,22.10821 0,0 0,0 0,0 m 9.25817,-50.38516 c 0,0 18.084105,4.77864 18.084105,4.77864 0,0 -1.510453,5.83588 -1.510453,5.83588 0,0 3.032607,0.72255 3.032607,0.72255 0,0 2.210332,-8.45894 2.210332,-8.45894 0,0 -17.961885,-5.2188 -17.961885,-5.2188 0,0 4.661934,-15.19615 4.661934,-15.19615 0,0 8.842825,3.04429 8.842825,3.04429 0,0 -0.9321,2.87206 -0.9321,2.87206 0,0 -5.943005,-1.88516 -5.943005,-1.88516 0,0 -2.760751,9.02576 -2.760751,9.02576 0,0 14.968235,4.34899 14.968235,4.34899 0,0 12.034479,-33.76291 12.034479,-33.76291 0,0 -2.86552,-1.22737 -2.86552,-1.22737 0,0 -11.287355,31.11147 -11.287355,31.11147 0,0 -8.980937,-2.60939 -8.980937,-2.60939 0,0 0.914877,-2.95721 0.914877,-2.95721 0,0 5.942995,1.88517 5.942995,1.88517 0,0 2.877824,-8.74937 2.877824,-8.74937 0,0 -14.738063,-5.07383 -14.738063,-5.07383 0,0 -6.590144,21.51432 -6.590144,21.51432 0,0 0,0 0,0 m 17.266173,-48.42727 c 0,0 17.008326,7.78103 17.008326,7.78103 0,0 -2.41368,5.52505 -2.41368,5.52505 0,0 2.86552,1.22738 2.86552,1.22738 0,0 3.687843,-8.30485 3.687843,-8.30485 0,0 -17.008312,-7.78104 -17.008312,-7.78104 0,0 7.030429,-14.25614 7.030429,-14.25614 0,0 8.304163,4.30042 8.304163,4.30042 0,0 -1.442463,2.78226 -1.442463,2.78226 0,0 -5.53609,-2.86695 -5.53609,-2.86695 0,0 -4.18942,8.45867 -4.18942,8.45867 0,0 14.011163,6.82776 14.011163,6.82776 0,0 17.27786,-31.40662 17.27786,-31.40662 0,0 -2.6148,-1.69674 -2.6148,-1.69674 0,0 -16.09119,28.9212 -16.09119,28.9212 0,0 -8.406683,-4.09665 -8.406683,-4.09665 0,0 1.37412,-2.81661 1.37412,-2.81661 0,0 5.604443,2.7311 5.604443,2.7311 0,0 4.15471,-8.00737 4.15471,-8.00737 0,0 -13.661083,-7.50294 -13.661083,-7.50294 0,0 -9.954856,20.18104 -9.954856,20.18104 0,0 0,0 0,0 M 105.34709,350.2961 c 0,0 15.68879,10.1804 15.68879,10.1804 0,0 -3.42992,5.27977 -3.42992,5.27977 0,0 2.61481,1.69675 2.61481,1.69675 0,0 4.98437,-7.59681 4.98437,-7.59681 0,0 -15.4344,-10.56168 -15.4344,-10.56168 0,0 9.23432,-12.94154 9.23432,-12.94154 0,0 7.44842,5.65319 7.44842,5.65319 0,0 -1.81046,2.41606 -1.81046,2.41606 0,0 -5.05679,-3.64568 -5.05679,-3.64568 0,0 -5.47177,7.69266 -5.47177,7.69266 0,0 12.862,8.80139 12.862,8.80139 0,0 22.11163,-28.19755 22.11163,-28.19755 0,0 -2.33668,-2.06265 -2.33668,-2.06265 0,0 -20.72013,26.14027 -20.72013,26.14027 0,0 -7.58519,-5.46853 -7.58519,-5.46853 0,0 1.83428,-2.54136 1.83428,-2.54136 0,0 5.05679,3.64567 5.05679,3.64567 0,0 5.49535,-7.39142 5.49535,-7.39142 0,0 -12.41405,-9.42201 -12.41405,-9.42201 0,0 -13.07137,18.32307 -13.07137,18.32307 0,0 0,0 0,0 m 31.73667,-40.47434 c 0,0 13.70939,12.71869 13.70939,12.71869 0,0 -4.04171,4.46994 -4.04171,4.46994 0,0 2.33667,2.06264 2.33667,2.06264 0,0 6.12301,-6.70941 6.12301,-6.70941 0,0 -13.70939,-12.71869 -13.70939,-12.71869 0,0 11.18875,-11.29988 11.18875,-11.29988 0,0 6.53087,6.69111 6.53087,6.69111 0,0 -2.24437,2.18812 -2.24437,2.18812 0,0 -4.35389,-4.46072 -4.35389,-4.46072 0,0 -6.65047,6.70157 -6.65047,6.70157 0,0 11.15817,10.87861 11.15817,10.87861 0,0 26.32374,-24.30731 26.32374,-24.30731 0,0 -1.946,-2.43428 -1.946,-2.43428 0,0 -24.42002,22.32278 -24.42002,22.32278 0,0 -6.69489,-6.52717 -6.69489,-6.52717 0,0 2.16208,-2.2157 2.16208,-2.2157 0,0 4.3539,4.46071 4.3539,4.46071 0,0 6.62176,-6.40119 6.62176,-6.40119 0,0 -10.60491,-11.41802 -10.60491,-11.41802 0,0 -15.84269,15.9982 -15.84269,15.9982 0,0 0,0 0,0 m 37.66955,-34.75461 c 0,0 11.67607,14.6056 11.67607,14.6056 0,0 -4.92082,3.92938 -4.92082,3.92938 0,0 1.946,2.43427 1.946,2.43427 0,0 7.13224,-5.62922 7.13224,-5.62922 0,0 -11.31281,-14.88842 -11.31281,-14.88842 0,0 12.85894,-9.35372 12.85894,-9.35372 0,0 5.2838,7.71282 5.2838,7.71282 0,0 -2.48625,1.71416 -2.48625,1.71416 0,0 -3.64774,-5.05392 -3.64774,-5.05392 0,0 -7.62631,5.56692 -7.62631,5.56692 0,0 9.42733,12.40702 9.42733,12.40702 0,0 29.91568,-19.75036 29.91568,-19.75036 0,0 -1.56774,-2.69321 -1.56774,-2.69321 0,0 -27.93908,18.24397 -27.93908,18.24397 0,0 -5.47163,-7.5809 -5.47163,-7.5809 0,0 2.54281,-1.83324 2.54281,-1.83324 0,0 3.64775,5.05393 3.64775,5.05393 0,0 7.55354,-5.27373 7.55354,-5.27373 0,0 -8.80638,-12.85471 -8.80638,-12.85471 0,0 -18.20541,13.24336 -18.20541,13.24336 0,0 0,0 0,0 m 42.92423,-28.34246 c 0,0 9.00863,16.38403 9.00863,16.38403 0,0 -5.25443,2.95972 -5.25443,2.95972 0,0 1.56775,2.69322 1.56775,2.69322 0,0 7.93591,-4.43141 7.93591,-4.43141 0,0 -9.00863,-16.38402 -9.00863,-16.38402 0,0 14.18888,-7.1787 14.18888,-7.1787 0,0 4.09896,8.40192 4.09896,8.40192 0,0 -2.8182,1.37333 -2.8182,1.37333 0,0 -2.73263,-5.60127 -2.73263,-5.60127 0,0 -8.42916,4.25524 -8.42916,4.25524 0,0 7.17143,13.83245 7.17143,13.83245 0,0 32.69796,-14.7218 32.69796,-14.7218 0,0 -1.08693,-2.92032 -1.08693,-2.92032 0,0 -30.26147,13.43397 -30.26147,13.43397 0,0 -4.30286,-8.29947 -4.30286,-8.29947 0,0 2.75915,-1.4061 2.75915,-1.4061 0,0 2.73263,5.60127 2.73263,5.60127 0,0 8.31042,-3.98027 8.31042,-3.98027 0,0 -6.48787,-14.16558 -6.48787,-14.16558 0,0 -20.08954,10.15379 -20.08954,10.15379 0,0 0,0 0,0 m 46.90442,-21.107 c 0,0 6.09203,17.67567 6.09203,17.67567 0,0 -5.65688,2.0937 -5.65688,2.0937 0,0 1.08693,2.92033 1.08693,2.92033 0,0 8.54971,-3.08864 8.54971,-3.08864 0,0 -6.09205,-17.67566 -6.09205,-17.67566 0,0 15.15855,-4.80485 15.15855,-4.80485 0,0 2.61087,8.97585 2.61087,8.97585 0,0 -3.01071,0.87476 -3.01071,0.87476 0,0 -1.74059,-5.98389 -1.74059,-5.98389 0,0 -9.03836,2.86353 -9.03836,2.86353 0,0 5.0767,14.72972 5.0767,14.72972 0,0 34.64271,-9.259 34.64271,-9.259 0,0 -0.64849,-3.04768 -0.64849,-3.04768 0,0 -32.28028,8.47705 -32.28028,8.47705 0,0 -2.82935,-8.90947 -2.82935,-8.90947 0,0 2.98844,-0.94795 2.98844,-0.94795 0,0 1.88624,5.93962 1.88624,5.93962 0,0 8.8347,-2.61949 8.8347,-2.61949 0,0 -4.35147,-14.95976 -4.35147,-14.95976 0,0 -21.2787,6.74616 -21.2787,6.74616 0,0 0,0 0,0 m 49.51169,-13.23887 c 0,0 3.44133,18.37581 3.44133,18.37581 0,0 -5.92256,1.1369 -5.92256,1.1369 0,0 0.64849,3.04767 0.64849,3.04767 0,0 8.59237,-1.62713 8.59237,-1.62713 0,0 -2.98905,-18.45468 -2.98905,-18.45468 0,0 15.73691,-2.30594 15.73691,-2.30594 0,0 1.03867,9.28962 1.03867,9.28962 0,0 -2.99488,0.38888 -2.99488,0.38888 0,0 -0.84477,-6.17416 -0.84477,-6.17416 0,0 -9.34268,1.37665 -9.34268,1.37665 0,0 2.49087,15.3789 2.49087,15.3789 0,0 35.66112,-3.60465 35.66112,-3.60465 0,0 -0.1159,-3.11367 -0.1159,-3.11367 0,0 -32.94834,3.1418 -32.94834,3.1418 0,0 -1.49452,-9.22732 -1.49452,-9.22732 0,0 3.0654,-0.44006 3.0654,-0.44006 0,0 0.84476,6.17417 0.84476,6.17417 0,0 9.14112,-1.15199 9.14112,-1.15199 0,0 -1.73111,-15.48271 -1.73111,-15.48271 0,0 -22.27723,3.27191 -22.27723,3.27191 0,0 0,0 0,0 m 51.19275,-5.17013 c 0,0 0.23198,18.69346 0.23198,18.69346 0,0 -6.02477,0.19087 -6.02477,0.19087 0,0 0.1159,3.11367 0.1159,3.11367 0,0 9.08264,-0.22782 9.08264,-0.22782 0,0 -0.23198,-18.69346 -0.23198,-18.69346 0,0 15.90445,0.23908 15.90445,0.23908 0,0 -0.34771,9.34098 -0.34771,9.34098 0,0 -3.13318,-0.11651 -3.13318,-0.11651 0,0 0.2318,-6.2273 0.2318,-6.2273 0,0 -9.44291,-0.15926 -9.44291,-0.15926 0,0 -0.19332,15.57788 -0.19332,15.57788 0,0 36.12092,2.18978 36.12092,2.18978 0,0 0.34622,-3.09653 0.34622,-3.09653 0,0 -33.29336,-2.16997 -33.29336,-2.16997 0,0 0.11599,-9.34672 0.11599,-9.34672 0,0 3.13511,0.0389 3.13511,0.0389 0,0 -0.0774,6.23114 -0.0774,6.23114 0,0 9.01446,0.30521 9.01446,0.30521 0,0 0.96471,-15.54922 0.96471,-15.54922 0,0 -22.51961,-0.33415 -22.51961,-0.33415 0,0 0,0 0,0 m 51.171,3.10047 c 0,0 -2.5343,18.52253 -2.5343,18.52253 0,0 -5.97663,-0.79816 -5.97663,-0.79816 0,0 -0.34622,3.09656 -0.34622,3.09656 0,0 8.66262,1.18406 8.66262,1.18406 0,0 2.98904,-18.4547 2.98904,-18.4547 0,0 15.65694,2.79254 15.65694,2.79254 0,0 -1.94546,9.14299 -1.94546,9.14299 0,0 -2.96323,-0.58507 -2.96323,-0.58507 0,0 1.1471,-6.12527 1.1471,-6.12527 0,0 -9.29845,-1.64868 -9.29845,-1.64868 0,0 -2.49087,15.3789 -2.49087,15.3789 0,0 34.97895,7.87347 34.97895,7.87347 0,0 0.8703,-2.99196 0.8703,-2.99196 0,0 -32.25601,-7.45656 -32.25601,-7.45656 0,0 1.49451,-9.22733 1.49451,-9.22733 0,0 3.04618,0.55831 3.04618,0.55831 0,0 -1.14711,6.12526 -1.14711,6.12526 0,0 9.03691,1.79841 9.03691,1.79841 0,0 3.24245,-15.23832 3.24245,-15.23832 0,0 -22.16672,-3.94698 -22.16672,-3.94698 0,0 0,0 0,0 m 50.1863,11.29916 c 0,0 -5.65872,17.81896 -5.65872,17.81896 0,0 -5.77776,-1.7309 -5.77776,-1.7309 0,0 -0.87029,2.99196 -0.87029,2.99196 0,0 8.69338,2.65673 8.69338,2.65673 0,0 5.65872,-17.81896 5.65872,-17.81896 0,0 15.00756,5.25733 15.00756,5.25733 0,0 -3.26079,8.76096 -3.26079,8.76096 0,0 -2.93862,-1.09252 -2.93862,-1.09252 0,0 2.17385,-5.84062 2.17385,-5.84062 0,0 -8.90713,-3.1356 -8.90713,-3.1356 0,0 -5.0767,14.72973 -5.0767,14.72973 0,0 33.27846,13.36343 33.27846,13.36343 0,0 1.36632,-2.80065 1.36632,-2.80065 0,0 -30.66502,-12.48819 -30.66502,-12.48819 0,0 3.04601,-8.83782 3.04601,-8.83782 0,0 2.96442,1.02055 2.96442,1.02055 0,0 -2.03068,5.89187 -2.03068,5.89187 0,0 8.45174,3.1647 8.45174,3.1647 0,0 5.78923,-14.46482 5.78923,-14.46482 0,0 -21.24398,-7.44614 -21.24398,-7.44614 0,0 0,0 0,0 m 47.54772,19.11487 c 0,0 -8.19794,16.80387 -8.19794,16.80387 0,0 -5.66147,-2.75888 -5.66147,-2.75888 0,0 -1.36632,2.80065 -1.36632,2.80065 0,0 8.1485,4.02885 8.1485,4.02885 0,0 8.60574,-16.59896 8.60574,-16.59896 0,0 13.96654,7.60085 13.96654,7.60085 0,0 -4.70322,8.07956 -4.70322,8.07956 0,0 -2.6149,-1.51202 -2.6149,-1.51202 0,0 3.00286,-5.46132 3.00286,-5.46132 0,0 -8.30174,-4.49892 -8.30174,-4.49892 0,0 -7.17144,13.83245 -7.17144,13.83245 0,0 30.68107,18.54807 30.68107,18.54807 0,0 1.76128,-2.57094 1.76128,-2.57094 0,0 -28.47051,-17.40628 -28.47051,-17.40628 0,0 4.50433,-8.19198 4.50433,-8.19198 0,0 2.74778,1.50913 2.74778,1.50913 0,0 -3.00286,5.46133 -3.00286,5.46133 0,0 8.00646,4.55946 8.00646,4.55946 0,0 7.83872,-13.46596 7.83872,-13.46596 0,0 -19.77288,-10.75896 -19.77288,-10.75896 0,0 0,0 0,0 m 44.01881,26.60708 c 0,0 -10.94328,15.16181 -10.94328,15.16181 0,0 -4.92654,-3.47561 -4.92654,-3.47561 0,0 -1.76128,2.57095 -1.76128,2.57095 0,0 7.40677,5.26487 7.40677,5.26487 0,0 10.94326,-15.16182 10.94326,-15.16182 0,0 12.57231,9.73669 12.57231,9.73669 0,0 -5.83803,7.30278 -5.83803,7.30278 0,0 -2.44952,-1.95599 -2.44952,-1.95599 0,0 3.89201,-4.86852 3.89201,-4.86852 0,0 -7.46029,-5.78708 -7.46029,-5.78708 0,0 -9.42733,12.40701 -9.42733,12.40701 0,0 27.30979,23.19781 27.30979,23.19781 0,0 2.17696,-2.23036 2.17696,-2.23036 0,0 -25.10432,-21.55371 -25.10432,-21.55371 0,0 5.65639,-7.44421 5.65639,-7.44421 0,0 2.45326,1.88882 2.45326,1.88882 0,0 -3.89201,4.86851 -3.89201,4.86851 0,0 7.15888,5.79633 7.15888,5.79633 0,0 10.02736,-11.92787 10.02736,-11.92787 0,0 -17.79439,-13.79041 -17.79439,-13.79041 0,0 0,0 0,0 m 39.20159,33.31299 c 0,0 -13.38978,13.05435 -13.38978,13.05435 0,0 -4.31695,-4.20478 -4.31695,-4.20478 0,0 -2.17697,2.23036 -2.17697,2.23036 0,0 6.45164,6.39322 6.45164,6.39322 0,0 13.3898,-13.05435 13.3898,-13.05435 0,0 10.84301,11.63077 10.84301,11.63077 0,0 -7.00999,6.1879 -7.00999,6.1879 0,0 -2.07558,-2.34866 -2.07558,-2.34866 0,0 4.67333,-4.12526 4.67333,-4.12526 0,0 -6.47305,-6.92592 -6.47305,-6.92592 0,0 -11.15815,10.87861 -11.15815,10.87861 0,0 23.20993,27.29522 23.20993,27.29522 0,0 2.48281,-1.88441 2.48281,-1.88441 0,0 -21.48857,-25.51035 -21.48857,-25.51035 0,0 6.85468,-6.35932 6.85468,-6.35932 0,0 2.13307,2.29662 2.13307,2.29662 0,0 -4.56978,4.23954 -4.56978,4.23954 0,0 6.15021,6.85523 6.15021,6.85523 0,0 11.68334,-10.31319 11.68334,-10.31319 0,0 -15.213,-16.33558 -15.213,-16.33558 0,0 0,0 0,0 m 33.19045,39.04684 c 0,0 -15.17041,10.93706 -15.17041,10.93706 0,0 -3.56997,-4.85682 -3.56997,-4.85682 0,0 -2.48281,1.88441 -2.48281,1.88441 0,0 5.35865,7.33663 5.35865,7.33663 0,0 15.1704,-10.93706 15.1704,-10.93706 0,0 8.84124,13.2134 8.84124,13.2134 0,0 -7.84437,5.09019 -7.84437,5.09019 0,0 -1.70738,-2.62821 -1.70738,-2.62821 0,0 5.22958,-3.39346 5.22958,-3.39346 0,0 -5.24469,-7.84885 -5.24469,-7.84885 0,0 -12.862,8.80138 -12.862,8.80138 0,0 18.55742,30.66438 18.55742,30.66438 0,0 2.76808,-1.43347 2.76808,-1.43347 0,0 -16.98177,-28.40558 -16.98177,-28.40558 0,0 7.71718,-5.28084 7.71718,-5.28084 0,0 1.7236,2.5715 1.7236,2.5715 0,0 -5.22957,3.39346 -5.22957,3.39346 0,0 4.9564,7.7637 4.9564,7.7637 0,0 13.27787,-8.16124 13.27787,-8.16124 0,0 -12.50745,-18.71058 -12.50745,-18.71058 0,0 0,0 0,0 m 26.61644,43.99728 c 0,0 -16.8134,8.19331 -16.8134,8.19331 0,0 -2.75929,-5.36098 -2.75929,-5.36098 0,0 -2.76807,1.43347 -2.76807,1.43347 0,0 4.09925,8.10967 4.09925,8.10967 0,0 16.81338,-8.1933 16.81338,-8.1933 0,0 6.59917,14.46036 6.59917,14.46036 0,0 -8.59652,3.68213 -8.59652,3.68213 0,0 -1.23507,-2.88022 -1.23507,-2.88022 0,0 5.73101,-2.45475 5.73101,-2.45475 0,0 -3.92671,-8.62536 -3.92671,-8.62536 0,0 -14.01116,6.82774 -14.01116,6.82774 0,0 13.36977,33.26013 13.36977,33.26013 0,0 2.94762,-1.01477 2.94762,-1.01477 0,0 -12.31369,-31.00694 -12.31369,-31.00694 0,0 8.50414,-3.89051 8.50414,-3.89051 0,0 1.30498,2.84925 1.30498,2.84925 0,0 -5.66942,2.59368 -5.66942,2.59368 0,0 3.59482,8.2741 3.59482,8.2741 0,0 14.47302,-5.78596 14.47302,-5.78596 0,0 -9.34383,-20.47105 -9.34383,-20.47105 0,0 0,0 0,0 m 19.12041,47.52291 c 0,0 -17.82905,5.65551 -17.82905,5.65551 0,0 -1.84136,-5.74096 -1.84136,-5.74096 0,0 -2.94762,1.01478 -2.94762,1.01478 0,0 2.64327,8.335 2.64327,8.335 0,0 17.96189,-5.2188 17.96189,-5.2188 0,0 4.18706,15.33371 4.18706,15.33371 0,0 -9.09779,2.1676 -9.09779,2.1676 0,0 -0.73921,-2.92725 -0.73921,-2.92725 0,0 6.02801,-1.59287 6.02801,-1.59287 0,0 -2.49647,-9.10238 -2.49647,-9.10238 0,0 -14.96824,4.349 -14.96824,4.349 0,0 7.87661,34.95944 7.87661,34.95944 0,0 3.07753,-0.4979 3.07753,-0.4979 0,0 -7.08523,-32.32235 -7.08523,-32.32235 0,0 8.98093,-2.60939 8.98093,-2.60939 0,0 0.79942,2.99053 0.79942,2.99053 0,0 -6.02802,1.59289 -6.02802,1.59289 0,0 2.24913,8.93099 2.24913,8.93099 0,0 15.16301,-3.61269 15.16301,-3.61269 0,0 -5.93387,-21.70486 -5.93387,-21.70486 0,0 0,0 0,0 m 11.29908,50.15933 c 0,0 -18.53303,2.53287 -18.53303,2.53287 0,0 -0.91141,-5.95728 -0.91141,-5.95728 0,0 -3.07754,0.4979 -3.07754,0.4979 0,0 1.3249,8.98621 1.3249,8.98621 0,0 18.53303,-2.53287 18.53303,-2.53287 0,0 1.67967,15.80709 1.67967,15.80709 0,0 -9.31766,0.80873 -9.31766,0.80873 0,0 -0.27128,-3.12183 -0.27128,-3.12183 0,0 6.21177,-0.53916 6.21177,-0.53916 0,0 -0.98373,-9.38721 -0.98373,-9.38721 0,0 -15.49149,1.73012 -15.49149,1.73012 0,0 2.18994,36.10053 2.18994,36.10053 0,0 3.11734,-0.0387 3.11734,-0.0387 0,0 -1.86078,-33.29371 -1.86078,-33.29371 0,0 9.29489,-1.03808 9.29489,-1.03808 0,0 0.34819,3.11419 0.34819,3.11419 0,0 -6.19658,0.69206 -6.19658,0.69206 0,0 0.76266,8.98352 0.76266,8.98352 0,0 15.55803,-0.96416 15.55803,-0.96416 0,0 -2.37692,-22.38028 -2.37692,-22.38028 0,0 0,0 0,0"
       id="path4882" />
  </g>
</svg>
